<?xml version="1.0"?>
<VTKFile type="PolyData" version="0.1" byte_order="LittleEndian">
  <PolyData>
    <Piece NumberOfPoints="     19" NumberOfVerts="  0" NumberOfLines="     18"
           NumberOfStrips="  0" NumberOfPolys="      0">
      <Points>
        <DataArray type="Float32" NumberOfComponents="3" format="ascii">
                      -4.93457                       0.00000                      91.49858
                      -4.87572                      -0.00345                      92.86406
                      -4.78000                      -0.10502                      95.59593
                      -4.69425                      -0.25146                      98.32832
                      -4.59221                      -0.46138                     101.74418
                      -4.41482                      -0.57040                     105.84085
                      -4.21063                      -0.54967                     109.93641
                      -4.00540                      -0.52667                     114.03200
                      -3.79626                      -0.49965                     118.12749
                      -3.58365                      -0.47052                     122.22290
                      -3.36857                      -0.44295                     126.31828
                      -3.15007                      -0.41541                     130.41356
                      -2.92869                      -0.38789                     134.50875
                      -2.70518                      -0.36037                     138.60385
                      -2.47798                      -0.33293                     142.69869
                      -2.28595                      -0.31007                     146.11083
                      -2.13104                      -0.28389                     148.84030
                      -1.97601                      -0.20265                     151.56963
                      -1.89870                      -0.20369                     152.93414
        </DataArray>
      </Points>
      <PointData>
        <DataArray type="Float32" Name="TranslationalVelocity" NumberOfComponents="3" format="ascii">
                       0.00000                      -1.89885                       0.00000
                      -0.00038                      -3.62898                      -0.00435
                      -0.01160                      -7.08797                      -0.13257
                      -0.02777                     -10.54649                      -0.31742
                      -0.05095                     -14.86956                      -0.58240
                      -0.06299                     -20.06033                      -0.72001
                      -0.06070                     -25.25265                      -0.69384
                      -0.05816                     -30.44512                      -0.66481
                      -0.05518                     -35.63790                      -0.63070
                      -0.05196                     -40.83097                      -0.59394
                      -0.04892                     -46.02426                      -0.55913
                      -0.04588                     -51.21782                      -0.52437
                      -0.04284                     -56.41158                      -0.48962
                      -0.03980                     -61.60545                      -0.45489
                      -0.03677                     -66.79940                      -0.42025
                      -0.03424                     -71.12772                      -0.39140
                      -0.03135                     -74.59019                      -0.35835
                      -0.02238                     -78.05251                      -0.25580
                      -0.02250                     -79.78346                      -0.25712
        </DataArray>
        <DataArray type="Float32" Name="RotationalVelocity" NumberOfComponents="3" format="ascii">
                       1.26229                      -0.00000                      -0.11044
                       1.26229                      -0.00000                      -0.11044
                       1.26229                      -0.00000                      -0.11044
                       1.26229                      -0.00000                      -0.11044
                       1.26229                      -0.00000                      -0.11044
                       1.26229                      -0.00000                      -0.11044
                       1.26229                      -0.00000                      -0.11044
                       1.26229                      -0.00000                      -0.11044
                       1.26229                      -0.00000                      -0.11044
                       1.26229                      -0.00000                      -0.11044
                       1.26229                      -0.00000                      -0.11044
                       1.26229                      -0.00000                      -0.11044
                       1.26229                      -0.00000                      -0.11044
                       1.26229                      -0.00000                      -0.11044
                       1.26229                      -0.00000                      -0.11044
                       1.26229                      -0.00000                      -0.11044
                       1.26229                      -0.00000                      -0.11044
                       1.26229                      -0.00000                      -0.11044
                       1.26229                      -0.00000                      -0.11044
        </DataArray>
        <DataArray type="Float32" Name="TranslationalAcceleration" NumberOfComponents="3" format="ascii">
                      -0.44042                       0.02902                      -2.57447
                      -0.19898                       0.12761                      -2.88038
                      -0.26096                       0.24568                      -8.27493
                       0.10149                       0.16441                     -13.27299
                       1.01381                      -0.07312                     -19.14411
                       2.28954                      -0.53622                     -25.83354
                       3.43136                      -0.97708                     -32.33358
                       4.64763                      -1.21567                     -38.80470
                       6.31484                      -1.36077                     -45.35186
                       8.94553                      -1.55777                     -52.03636
                      13.10390                      -1.93974                     -58.88440
                      19.37340                      -2.60887                     -65.89899
                      28.31646                      -3.58871                     -73.07140
                      40.46430                      -4.79996                     -80.39463
                      56.32576                      -6.02578                     -87.87662
                      72.59640                      -6.79939                     -94.25067
                      88.07259                      -7.02527                     -99.48379
                     106.73446                      -6.71646                    -104.92075
                     116.65836                      -6.16622                    -107.69351
        </DataArray>
        <DataArray type="Float32" Name="RotationalAcceleration" NumberOfComponents="3" format="ascii">
                      -0.00492                      -0.03598                      -0.00474
                      -0.01062                       0.00747                      -0.20839
                      -0.01086                       0.01258                      -0.20967
                       0.00361                       0.00936                       0.08042
                       0.02336                       0.00103                       0.47611
                       0.03118                      -0.00761                       0.63699
                       0.01409                      -0.01057                       0.30437
                      -0.02271                      -0.00900                      -0.41847
                      -0.06636                      -0.00841                      -1.27599
                      -0.10121                      -0.01772                      -1.95478
                      -0.11422                      -0.04816                      -2.19078
                      -0.10032                      -0.11211                      -1.87422
                      -0.06775                      -0.22202                      -1.15457
                      -0.04342                      -0.38929                      -0.54568
                      -0.07822                      -0.62317                      -1.03042
                      -0.20435                      -0.87177                      -3.27960
                      -0.41760                      -1.10885                      -7.23394
                      -0.77565                      -1.37897                     -13.97981
                      -1.02369                      -1.52575                     -18.68681
        </DataArray>
        <DataArray type="Float32" Name="OrientationX" NumberOfComponents="3" format="ascii">
                       0.97222                      -0.23019                      -0.04245
                       0.97222                      -0.23019                      -0.04250
                       0.97221                      -0.23018                      -0.04267
                       0.97220                      -0.23018                      -0.04292
                       0.97218                      -0.23017                      -0.04333
                       0.97900                      -0.19900                      -0.04425
                       0.98328                      -0.17640                      -0.04518
                       0.98659                      -0.15657                      -0.04618
                       0.98964                      -0.13556                      -0.04728
                       0.99231                      -0.11388                      -0.04844
                       0.99440                      -0.09333                      -0.04966
                       0.99604                      -0.07292                      -0.05092
                       0.99716                      -0.05440                      -0.05217
                       0.99776                      -0.04035                      -0.05338
                       0.99816                      -0.02651                      -0.05450
                       0.99836                      -0.01494                      -0.05530
                       0.99842                      -0.00633                      -0.05581
                       0.99842                      -0.00172                      -0.05617
                       0.99841                      -0.00171                      -0.05628
        </DataArray>
        <DataArray type="Float32" Name="OrientationY" NumberOfComponents="3" format="ascii">
                       0.22997                       0.97315                      -0.01004
                       0.22997                       0.97315                      -0.01005
                       0.22996                       0.97315                      -0.01009
                       0.22996                       0.97315                      -0.01013
                       0.22995                       0.97315                      -0.01019
                       0.19881                       0.98000                      -0.00887
                       0.17622                       0.98432                      -0.00791
                       0.15641                       0.98767                      -0.00705
                       0.13542                       0.99077                      -0.00610
                       0.11377                       0.99349                      -0.00510
                       0.09325                       0.99563                      -0.00411
                       0.07286                       0.99734                      -0.00310
                       0.05436                       0.99852                      -0.00215
                       0.04033                       0.99919                      -0.00141
                       0.02651                       0.99965                      -0.00067
                       0.01496                       0.99989                      -0.00004
                       0.00637                       0.99998                       0.00044
                       0.00176                       1.00000                       0.00069
                       0.00175                       1.00000                       0.00069
        </DataArray>
        <DataArray type="Float32" Name="OrientationZ" NumberOfComponents="3" format="ascii">
                       0.04362                       0.00000                       0.99905
                       0.04367                       0.00000                       0.99905
                       0.04385                      -0.00001                       0.99904
                       0.04410                      -0.00002                       0.99903
                       0.04451                      -0.00006                       0.99901
                       0.04513                      -0.00012                       0.99898
                       0.04587                      -0.00019                       0.99895
                       0.04672                      -0.00027                       0.99891
                       0.04767                      -0.00036                       0.99886
                       0.04871                      -0.00045                       0.99881
                       0.04983                      -0.00054                       0.99876
                       0.05101                      -0.00062                       0.99870
                       0.05221                      -0.00069                       0.99864
                       0.05340                      -0.00074                       0.99857
                       0.05450                      -0.00078                       0.99851
                       0.05530                      -0.00079                       0.99847
                       0.05581                      -0.00079                       0.99844
                       0.05617                      -0.00079                       0.99842
                       0.05627                      -0.00078                       0.99842
        </DataArray>
        <DataArray type="Float32" Name="Force" NumberOfComponents="3" format="ascii">
                      -0.00000                       3.91118                      -0.00000
                     116.44908                      42.07471                      -5.09064
                     147.37318                     103.34482                      -6.46819
                     133.21541                     138.11282                      -5.88068
                    1216.74996                    -494.99680                     -54.21457
                    1706.57901                    -588.47847                     -77.09828
                    2057.21161                    -590.13221                     -94.46314
                    2493.25954                    -601.14222                    -116.60515
                    3147.39889                    -633.91330                    -150.19411
                    3701.11891                    -645.56230                    -180.48494
                    4468.75833                    -666.96423                    -222.94462
                    5172.53506                    -674.40065                    -264.17712
                    5550.33779                    -683.57461                    -290.18934
                    6155.21758                    -685.08088                    -329.14060
                    6702.29789                    -671.70115                    -365.80682
                    7016.06183                    -628.78170                    -388.55540
                    6855.40719                    -540.94322                    -383.18159
                    4977.75038                    -351.72296                    -280.02170
                    2379.27547                      28.76852                    -134.10539
        </DataArray>
        <DataArray type="Float32" Name="Moment" NumberOfComponents="3" format="ascii">
                       0.00000                       0.00000                       0.00000
                       0.00000                       0.00000                       0.00000
                       0.00000                       0.00000                       0.00000
                       0.00000                       0.00000                       0.00000
                     -15.65480                      -0.00000                    -351.34423
                     -34.17325                      -0.00000                    -756.42872
                     -46.02584                      -0.00000                   -1002.34744
                     -66.47712                      -0.00000                   -1421.41850
                     -93.12342                      -0.00000                   -1951.45161
                    -107.03279                      -0.00000                   -2194.87065
                    -116.78146                      -0.00000                   -2340.79708
                    -126.66945                      -0.00000                   -2480.16245
                    -115.06066                      -0.00000                   -2200.72025
                    -118.27978                      -0.00000                   -2211.93549
                    -117.96300                      -0.00000                   -2161.31338
                    -114.39665                      -0.00000                   -2065.63584
                    -102.63132                      -0.00000                   -1836.15154
                     -51.88418                      -0.00000                    -922.30881
                     -44.60927                      -0.00000                    -791.45017
        </DataArray>
      </PointData>
      <Lines>
        <DataArray type="Int32" Name="connectivity" format="ascii">
      0      1
      1      2
      2      3
      3      4
      4      5
      5      6
      6      7
      7      8
      8      9
      9     10
     10     11
     11     12
     12     13
     13     14
     14     15
     15     16
     16     17
     17     18
        </DataArray>
        <DataArray type="Int32" Name="offsets" format="ascii">
      2
      4
      6
      8
     10
     12
     14
     16
     18
     20
     22
     24
     26
     28
     30
     32
     34
     36
        </DataArray>
      </Lines>
    </Piece>
  </PolyData>
</VTKFile>
