<?xml version="1.0"?>
<VTKFile type="PolyData" version="0.1" byte_order="LittleEndian">
  <PolyData>
    <Piece NumberOfPoints="     19" NumberOfVerts="  0" NumberOfLines="     18"
           NumberOfStrips="  0" NumberOfPolys="      0">
      <Points>
        <DataArray type="Float32" NumberOfComponents="3" format="ascii">
                      -5.13049                       1.29780                      89.25927
                      -5.24988                       2.48192                      88.58718
                      -5.50341                       4.89618                      87.32618
                      -5.76355                       7.33198                      86.10356
                      -6.09207                      10.38918                      84.59667
                      -6.44286                      13.98666                      82.65590
                      -6.77728                      17.51796                      80.59680
                      -7.11139                      21.04610                      78.53214
                      -7.44246                      24.57045                      76.46040
                      -7.77072                      28.09216                      74.38366
                      -8.09681                      31.61335                      72.30563
                      -8.41980                      35.13355                      70.22537
                      -8.74008                      38.65298                      68.14338
                      -9.05825                      42.17181                      66.06012
                      -9.37260                      45.69022                      63.97578
                      -9.63165                      48.62189                      62.23805
                      -9.83798                      50.96286                      60.84069
                     -10.04809                      53.27550                      59.39571
                     -10.15011                      54.45270                      58.70889
        </DataArray>
      </Points>
      <PointData>
        <DataArray type="Float32" Name="TranslationalVelocity" NumberOfComponents="3" format="ascii">
                       0.14332                       0.94943                       1.63820
                       0.27409                       1.81099                       3.13289
                       0.54071                       3.43073                       6.18039
                       0.80971                       5.00276                       9.25506
                       1.14734                       6.94116                      13.11413
                       1.54463                       9.42971                      17.65518
                       1.93461                      12.06582                      22.11270
                       2.32424                      14.70891                      26.56623
                       2.71346                      17.36061                      31.01496
                       3.10238                      20.01830                      35.46038
                       3.49125                      22.67739                      39.90513
                       3.88000                      25.33893                      44.34863
                       4.26867                      28.00237                      48.79116
                       4.65728                      30.66718                      53.23294
                       5.04584                      33.33294                      57.67418
                       5.36960                      35.55506                      61.37480
                       5.62813                      37.34172                      64.32977
                       5.88352                      39.18890                      67.24899
                       6.01353                      40.06713                      68.73495
        </DataArray>
        <DataArray type="Float32" Name="RotationalVelocity" NumberOfComponents="3" format="ascii">
                       1.26229                       0.00000                      -0.11044
                       1.26229                       0.00000                      -0.11044
                       1.26229                       0.00000                      -0.11044
                       1.26229                       0.00000                      -0.11044
                       1.26229                       0.00000                      -0.11044
                       1.26229                      -0.00000                      -0.11044
                       1.26229                       0.00000                      -0.11044
                       1.26229                       0.00000                      -0.11044
                       1.26229                       0.00000                      -0.11044
                       1.26229                       0.00000                      -0.11044
                       1.26229                       0.00000                      -0.11044
                       1.26229                       0.00000                      -0.11044
                       1.26229                       0.00000                      -0.11044
                       1.26229                       0.00000                      -0.11044
                       1.26229                       0.00000                      -0.11044
                       1.26229                       0.00000                      -0.11044
                       1.26229                       0.00000                      -0.11044
                       1.26229                       0.00000                      -0.11044
                       1.26229                       0.00000                      -0.11044
        </DataArray>
        <DataArray type="Float32" Name="TranslationalAcceleration" NumberOfComponents="3" format="ascii">
                      -0.03914                      -2.06477                       1.00745
                       0.25788                      -2.56340                       1.37668
                       0.90861                      -7.28865                       3.95971
                       1.81318                     -11.54609                       6.40770
                       3.29415                     -16.44185                       9.30720
                       5.21091                     -21.90482                      12.73890
                       6.98279                     -27.22689                      16.10592
                       8.78039                     -32.62873                      19.31228
                      10.89427                     -38.12833                      22.44251
                      13.72018                     -43.67721                      25.56248
                      17.69849                     -49.19697                      28.70104
                      23.31774                     -54.59886                      31.85513
                      31.10207                     -59.81827                      34.96617
                      41.63642                     -64.83511                      37.91421
                      55.61271                     -69.70316                      40.51291
                      71.05039                     -73.73370                      42.16092
                      85.98448                     -77.04983                      43.02129
                     104.92339                     -80.48979                      43.22342
                     114.95057                     -82.38684                      43.03672
        </DataArray>
        <DataArray type="Float32" Name="RotationalAcceleration" NumberOfComponents="3" format="ascii">
                      -0.00492                      -0.03598                      -0.00474
                       0.01631                      -0.19215                       0.10291
                       0.01603                      -0.19314                       0.10659
                      -0.00729                       0.07253                      -0.03353
                      -0.03862                       0.42922                      -0.22839
                      -0.04931                       0.55370                      -0.31225
                      -0.01659                       0.19890                      -0.15377
                       0.05322                      -0.55491                       0.19965
                       0.14086                      -1.49752                       0.61880
                       0.22072                      -2.37919                       0.93318
                       0.26867                      -3.01345                       0.97780
                       0.26954                      -3.37776                       0.63893
                       0.22475                      -3.71418                      -0.10017
                       0.15986                      -4.63013                      -1.11346
                       0.13212                      -7.19872                      -2.08646
                       0.20046                     -11.65621                      -2.50490
                       0.37441                     -17.73412                      -2.24513
                       0.71153                     -26.93746                      -1.12335
                       0.96026                     -33.00146                      -0.12780
        </DataArray>
        <DataArray type="Float32" Name="OrientationX" NumberOfComponents="3" format="ascii">
                       0.98405                       0.15185                       0.09271
                       0.98405                       0.15183                       0.09272
                       0.98406                       0.15176                       0.09276
                       0.98407                       0.15165                       0.09282
                       0.98409                       0.15146                       0.09291
                       0.98858                       0.13574                       0.06548
                       0.99121                       0.12409                       0.04577
                       0.99311                       0.11366                       0.02864
                       0.99468                       0.10250                       0.01059
                       0.99583                       0.09085                      -0.00793
                       0.99650                       0.07963                      -0.02534
                       0.99675                       0.06837                      -0.04253
                       0.99663                       0.05799                      -0.05799
                       0.99633                       0.04983                      -0.06955
                       0.99584                       0.04183                      -0.08091
                       0.99528                       0.03522                      -0.09043
                       0.99477                       0.03036                      -0.09754
                       0.99447                       0.02765                      -0.10128
                       0.99448                       0.02753                      -0.10121
        </DataArray>
        <DataArray type="Float32" Name="OrientationY" NumberOfComponents="3" format="ascii">
                       0.15520                      -0.47788                      -0.86461
                       0.15522                      -0.47803                      -0.86452
                       0.15525                      -0.47844                      -0.86429
                       0.15530                      -0.47895                      -0.86399
                       0.15536                      -0.47968                      -0.86358
                       0.12395                      -0.48518                      -0.86559
                       0.10123                      -0.48907                      -0.86635
                       0.08134                      -0.49230                      -0.86662
                       0.06027                      -0.49534                      -0.86660
                       0.03854                      -0.49810                      -0.86626
                       0.01798                      -0.50039                      -0.86561
                      -0.00243                      -0.50234                      -0.86467
                      -0.02093                      -0.50386                      -0.86353
                      -0.03495                      -0.50489                      -0.86247
                      -0.04873                      -0.50575                      -0.86130
                      -0.06025                      -0.50634                      -0.86023
                      -0.06880                      -0.50671                      -0.85937
                      -0.07338                      -0.50691                      -0.85887
                      -0.07337                      -0.50694                      -0.85885
        </DataArray>
        <DataArray type="Float32" Name="OrientationZ" NumberOfComponents="3" format="ascii">
                      -0.08699                       0.86520                      -0.49382
                      -0.08694                       0.86512                      -0.49397
                      -0.08678                       0.86491                      -0.49437
                      -0.08657                       0.86464                      -0.49487
                      -0.08623                       0.86428                      -0.49557
                      -0.08573                       0.86382                      -0.49646
                      -0.08512                       0.86337                      -0.49734
                      -0.08440                       0.86297                      -0.49815
                      -0.08358                       0.86263                      -0.49888
                      -0.08265                       0.86235                      -0.49952
                      -0.08161                       0.86213                      -0.50007
                      -0.08048                       0.86196                      -0.50054
                      -0.07930                       0.86184                      -0.50095
                      -0.07809                       0.86174                      -0.50130
                      -0.07694                       0.86167                      -0.50161
                      -0.07608                       0.86162                      -0.50183
                      -0.07551                       0.86158                      -0.50197
                      -0.07509                       0.86155                      -0.50208
                      -0.07495                       0.86154                      -0.50212
        </DataArray>
        <DataArray type="Float32" Name="Force" NumberOfComponents="3" format="ascii">
                      -0.10530                      -0.69757                      -1.20362
                     100.55361                     -10.65026                     -36.35881
                     126.49663                     -35.77987                     -84.90172
                     113.51595                     -54.61517                    -115.55695
                    1168.83024                     273.14105                     274.76698
                    1628.09690                     335.64750                     306.09359
                    1904.81007                     332.32290                     254.96660
                    2248.06596                     336.56032                     206.97439
                    2796.88771                     359.27640                     158.36635
                    3237.53171                     367.16987                     104.45138
                    3871.07812                     383.55557                      36.23537
                    4438.11768                     389.74777                     -35.53166
                    4728.10084                     390.12993                     -70.11905
                    5210.32161                     390.52921                    -133.25565
                    5656.28070                     384.69979                    -199.91727
                    5955.27153                     370.88112                    -259.67371
                    5932.49408                     343.05794                    -297.87103
                    4428.81096                     245.01416                    -237.90231
                    2337.67381                      48.83853                    -265.59365
        </DataArray>
        <DataArray type="Float32" Name="Moment" NumberOfComponents="3" format="ascii">
                       0.00000                       0.00000                       0.00000
                       0.00000                       0.00000                       0.00000
                       0.00000                       0.00000                       0.00000
                       0.00000                       0.00000                       0.00000
                      27.81973                    -279.61604                     159.61914
                      59.60693                    -603.15993                     344.34982
                      79.25535                    -808.42033                     461.59063
                     111.76678                   -1150.63256                     657.07728
                     153.14808                   -1593.36515                     910.04506
                     170.77958                   -1798.04854                    1027.12792
                     181.75500                   -1939.04738                    1107.88437
                     190.81607                   -2065.25477                    1180.23583
                     162.12335                   -1781.77212                    1018.45215
                     160.47184                   -1791.48243                    1024.22430
                     154.55647                   -1751.86356                    1001.78049
                     146.46804                   -1679.37082                     960.47456
                     130.09499                   -1503.18393                     859.79691
                      65.57166                    -762.01502                     435.89334
                      57.95682                    -674.82534                     386.02828
        </DataArray>
      </PointData>
      <Lines>
        <DataArray type="Int32" Name="connectivity" format="ascii">
      0      1
      1      2
      2      3
      3      4
      4      5
      5      6
      6      7
      7      8
      8      9
      9     10
     10     11
     11     12
     12     13
     13     14
     14     15
     15     16
     16     17
     17     18
        </DataArray>
        <DataArray type="Int32" Name="offsets" format="ascii">
      2
      4
      6
      8
     10
     12
     14
     16
     18
     20
     22
     24
     26
     28
     30
     32
     34
     36
        </DataArray>
      </Lines>
    </Piece>
  </PolyData>
</VTKFile>
