<?xml version="1.0"?>
<VTKFile type="PolyData" version="0.1" byte_order="LittleEndian">
  <PolyData>
    <Piece NumberOfPoints="     22" NumberOfVerts="  0" NumberOfLines="     21"
           NumberOfStrips="  0" NumberOfPolys="      0">
      <Points>
        <DataArray type="Float32" NumberOfComponents="3" format="ascii">
                       0.00000                       0.00000                       2.19000
                       0.00000                       0.00000                       6.57000
                       0.00000                       0.00000                      10.95000
                       0.00000                       0.00000                      15.33000
                       0.00000                       0.00000                      19.71000
                       0.00000                       0.00000                      24.09000
                       0.00000                       0.00000                      28.47000
                       0.00000                       0.00000                      32.85000
                       0.00000                       0.00000                      37.23000
                       0.00000                       0.00000                      41.61000
                       0.00000                       0.00000                      45.99000
                       0.00000                       0.00000                      50.37000
                       0.00000                       0.00000                      54.75000
                       0.00000                       0.00000                      59.13000
                       0.00000                       0.00000                      63.51000
                       0.00000                       0.00000                      67.89000
                       0.00000                       0.00000                      72.27000
                       0.00000                       0.00000                      76.65000
                       0.00000                       0.00000                      81.03000
                       0.00000                       0.00000                      85.41000
                       0.00000                       0.00000                      87.60000
                       0.00000                       0.00000                       0.00000
        </DataArray>
      </Points>
      <PointData>
        <DataArray type="Float32" Name="TranslationalVelocity" NumberOfComponents="3" format="ascii">
                       0.00000                      -0.00000                       0.00000
                       0.00000                      -0.00000                       0.00000
                       0.00000                      -0.00000                       0.00000
                       0.00000                      -0.00000                       0.00000
                       0.00000                      -0.00000                       0.00000
                       0.00000                      -0.00000                       0.00000
                       0.00000                      -0.00000                       0.00000
                       0.00000                      -0.00000                       0.00000
                       0.00000                      -0.00000                       0.00000
                       0.00000                      -0.00000                       0.00000
                       0.00000                      -0.00000                       0.00000
                       0.00000                      -0.00000                       0.00000
                       0.00000                      -0.00000                       0.00000
                       0.00000                      -0.00000                       0.00000
                       0.00000                      -0.00000                       0.00000
                       0.00000                      -0.00000                       0.00000
                       0.00000                      -0.00000                       0.00000
                       0.00000                      -0.00000                       0.00000
                       0.00000                      -0.00000                       0.00000
                       0.00000                      -0.00000                       0.00000
                       0.00000                      -0.00000                       0.00000
                       0.00000                      -0.00000                       0.00000
        </DataArray>
        <DataArray type="Float32" Name="RotationalVelocity" NumberOfComponents="3" format="ascii">
                       0.00000                      -0.00000                       0.00000
                       0.00000                      -0.00000                       0.00000
                       0.00000                      -0.00000                       0.00000
                       0.00000                      -0.00000                       0.00000
                       0.00000                      -0.00000                       0.00000
                       0.00000                      -0.00000                       0.00000
                       0.00000                      -0.00000                       0.00000
                       0.00000                      -0.00000                       0.00000
                       0.00000                      -0.00000                       0.00000
                       0.00000                      -0.00000                       0.00000
                       0.00000                      -0.00000                       0.00000
                       0.00000                      -0.00000                       0.00000
                       0.00000                      -0.00000                       0.00000
                       0.00000                      -0.00000                       0.00000
                       0.00000                      -0.00000                       0.00000
                       0.00000                      -0.00000                       0.00000
                       0.00000                      -0.00000                       0.00000
                       0.00000                      -0.00000                       0.00000
                       0.00000                      -0.00000                       0.00000
                       0.00000                      -0.00000                       0.00000
                       0.00000                      -0.00000                       0.00000
                       0.00000                      -0.00000                       0.00000
        </DataArray>
        <DataArray type="Float32" Name="TranslationalAcceleration" NumberOfComponents="3" format="ascii">
                       0.00178                       0.00008                       0.00000
                       0.01643                       0.00066                       0.00000
                       0.04593                       0.00170                       0.00000
                       0.08925                       0.00311                       0.00000
                       0.14425                       0.00480                       0.00000
                       0.20792                       0.00668                       0.00000
                       0.27661                       0.00867                       0.00000
                       0.34623                       0.01068                       0.00000
                       0.41246                       0.01261                       0.00000
                       0.47093                       0.01436                       0.00000
                       0.51743                       0.01581                       0.00000
                       0.54807                       0.01686                       0.00000
                       0.55944                       0.01739                       0.00000
                       0.54879                       0.01729                       0.00000
                       0.51419                       0.01647                       0.00000
                       0.45463                       0.01486                       0.00000
                       0.37019                       0.01244                       0.00000
                       0.26216                       0.00920                       0.00000
                       0.13314                       0.00524                       0.00000
                      -0.01281                       0.00070                       0.00000
                      -0.09044                      -0.00171                       0.00000
                       0.00000                      -0.00000                       0.00000
        </DataArray>
        <DataArray type="Float32" Name="RotationalAcceleration" NumberOfComponents="3" format="ascii">
                      -0.00007                       0.00164                       0.00000
                      -0.00019                       0.00506                       0.00000
                      -0.00028                       0.00838                       0.00000
                      -0.00036                       0.01132                       0.00000
                      -0.00041                       0.01367                       0.00000
                      -0.00045                       0.01526                       0.00000
                      -0.00046                       0.01595                       0.00000
                      -0.00045                       0.01567                       0.00000
                      -0.00042                       0.01440                       0.00000
                      -0.00037                       0.01214                       0.00000
                      -0.00029                       0.00895                       0.00000
                      -0.00018                       0.00491                       0.00000
                      -0.00005                       0.00017                       0.00000
                       0.00010                      -0.00511                       0.00000
                       0.00027                      -0.01073                       0.00000
                       0.00046                      -0.01646                       0.00000
                       0.00065                      -0.02205                       0.00000
                       0.00083                      -0.02719                       0.00000
                       0.00098                      -0.03157                       0.00000
                       0.00108                      -0.03486                       0.00000
                       0.00111                      -0.03598                       0.00000
                       0.00000                      -0.00000                       0.00000
        </DataArray>
        <DataArray type="Float32" Name="OrientationX" NumberOfComponents="3" format="ascii">
                       1.00000                      -0.00000                       0.00000
                       1.00000                      -0.00000                       0.00000
                       1.00000                      -0.00000                       0.00000
                       1.00000                      -0.00000                       0.00000
                       1.00000                      -0.00000                       0.00000
                       1.00000                      -0.00000                       0.00000
                       1.00000                      -0.00000                       0.00000
                       1.00000                      -0.00000                       0.00000
                       1.00000                      -0.00000                       0.00000
                       1.00000                      -0.00000                       0.00000
                       1.00000                      -0.00000                       0.00000
                       1.00000                      -0.00000                       0.00000
                       1.00000                      -0.00000                       0.00000
                       1.00000                      -0.00000                       0.00000
                       1.00000                      -0.00000                       0.00000
                       1.00000                      -0.00000                       0.00000
                       1.00000                      -0.00000                       0.00000
                       1.00000                      -0.00000                       0.00000
                       1.00000                      -0.00000                       0.00000
                       1.00000                      -0.00000                       0.00000
                       1.00000                      -0.00000                       0.00000
                       1.00000                      -0.00000                       0.00000
        </DataArray>
        <DataArray type="Float32" Name="OrientationY" NumberOfComponents="3" format="ascii">
                      -0.00000                       1.00000                      -0.00000
                      -0.00000                       1.00000                      -0.00000
                      -0.00000                       1.00000                      -0.00000
                      -0.00000                       1.00000                      -0.00000
                      -0.00000                       1.00000                      -0.00000
                      -0.00000                       1.00000                      -0.00000
                      -0.00000                       1.00000                      -0.00000
                      -0.00000                       1.00000                      -0.00000
                      -0.00000                       1.00000                      -0.00000
                      -0.00000                       1.00000                      -0.00000
                      -0.00000                       1.00000                      -0.00000
                      -0.00000                       1.00000                      -0.00000
                      -0.00000                       1.00000                      -0.00000
                      -0.00000                       1.00000                      -0.00000
                      -0.00000                       1.00000                      -0.00000
                      -0.00000                       1.00000                      -0.00000
                      -0.00000                       1.00000                      -0.00000
                      -0.00000                       1.00000                      -0.00000
                      -0.00000                       1.00000                      -0.00000
                      -0.00000                       1.00000                      -0.00000
                      -0.00000                       1.00000                      -0.00000
                      -0.00000                       1.00000                      -0.00000
        </DataArray>
        <DataArray type="Float32" Name="OrientationZ" NumberOfComponents="3" format="ascii">
                       0.00000                      -0.00000                       1.00000
                       0.00000                      -0.00000                       1.00000
                       0.00000                      -0.00000                       1.00000
                       0.00000                      -0.00000                       1.00000
                       0.00000                      -0.00000                       1.00000
                       0.00000                      -0.00000                       1.00000
                       0.00000                      -0.00000                       1.00000
                       0.00000                      -0.00000                       1.00000
                       0.00000                      -0.00000                       1.00000
                       0.00000                      -0.00000                       1.00000
                       0.00000                      -0.00000                       1.00000
                       0.00000                      -0.00000                       1.00000
                       0.00000                      -0.00000                       1.00000
                       0.00000                      -0.00000                       1.00000
                       0.00000                      -0.00000                       1.00000
                       0.00000                      -0.00000                       1.00000
                       0.00000                      -0.00000                       1.00000
                       0.00000                      -0.00000                       1.00000
                       0.00000                      -0.00000                       1.00000
                       0.00000                      -0.00000                       1.00000
                       0.00000                      -0.00000                       1.00000
                       0.00000                      -0.00000                       1.00000
        </DataArray>
      </PointData>
      <Lines>
        <DataArray type="Int32" Name="connectivity" format="ascii">
      0      1
      1      2
      2      3
      3      4
      4      5
      5      6
      6      7
      7      8
      8      9
      9     10
     10     11
     11     12
     12     13
     13     14
     14     15
     15     16
     16     17
     17     18
     18     19
     19     20
     21      0
        </DataArray>
        <DataArray type="Int32" Name="offsets" format="ascii">
      2
      4
      6
      8
     10
     12
     14
     16
     18
     20
     22
     24
     26
     28
     30
     32
     34
     36
     38
     40
     42
        </DataArray>
      </Lines>
    </Piece>
  </PolyData>
</VTKFile>
