<?xml version="1.0"?>
<VTKFile type="PolyData" version="0.1" byte_order="LittleEndian">
  <PolyData>
    <Piece NumberOfPoints="     19" NumberOfVerts="  0" NumberOfLines="     18"
           NumberOfStrips="  0" NumberOfPolys="      0">
      <Points>
        <DataArray type="Float32" NumberOfComponents="3" format="ascii">
                      -5.13049                      -1.29780                      89.25927
                      -5.25040                      -2.47847                      88.58123
                      -5.51922                      -4.79105                      87.14503
                      -5.80123                      -7.08001                      85.66992
                      -6.16062                      -9.92625                      83.80131
                      -6.52589                     -13.41336                      81.67290
                      -6.85392                     -16.96458                      79.64953
                      -7.17979                     -20.51504                      77.62417
                      -7.50040                     -24.06594                      75.59830
                      -7.81630                     -27.61650                      73.57071
                      -8.12877                     -31.16511                      71.53883
                      -8.43678                     -34.71282                      69.50439
                      -8.74098                     -38.25985                      67.46796
                      -9.04224                     -41.80635                      65.43008
                      -9.33920                     -45.35240                      63.39087
                      -9.58365                     -48.30712                      61.69068
                      -9.77721                     -50.67457                      60.33692
                      -9.96650                     -53.06961                      59.03005
                     -10.06449                     -54.24571                      58.34078
        </DataArray>
      </Points>
      <PointData>
        <DataArray type="Float32" Name="TranslationalVelocity" NumberOfComponents="3" format="ascii">
                      -0.14332                       0.94943                      -1.63820
                      -0.27371                       1.81856                      -3.12854
                      -0.52910                       3.66114                      -6.04768
                      -0.78189                       5.55429                      -8.93701
                      -1.09621                       7.95271                     -12.52978
                      -1.48132                      10.67971                     -16.93152
                      -1.87350                      13.27001                     -21.41417
                      -2.26560                      15.86259                     -25.89588
                      -2.65774                      18.45522                     -30.37812
                      -3.04985                      21.04951                     -34.85996
                      -3.44174                      23.64883                     -39.33932
                      -3.83354                      26.25090                     -43.81755
                      -4.22526                      28.85505                     -48.29492
                      -4.61692                      31.46071                     -52.77162
                      -5.00853                      34.06758                     -57.24776
                      -5.33484                      36.24069                     -60.97747
                      -5.59629                      37.97091                     -63.96586
                      -5.86079                      39.64146                     -66.98910
                      -5.99067                      40.52234                     -68.47368
        </DataArray>
        <DataArray type="Float32" Name="RotationalVelocity" NumberOfComponents="3" format="ascii">
                       1.26229                      -0.00000                      -0.11044
                       1.26229                      -0.00000                      -0.11044
                       1.26229                      -0.00000                      -0.11044
                       1.26229                      -0.00000                      -0.11044
                       1.26229                      -0.00000                      -0.11044
                       1.26229                      -0.00000                      -0.11044
                       1.26229                      -0.00000                      -0.11044
                       1.26229                      -0.00000                      -0.11044
                       1.26229                      -0.00000                      -0.11044
                       1.26229                      -0.00000                      -0.11044
                       1.26229                      -0.00000                      -0.11044
                       1.26229                      -0.00000                      -0.11044
                       1.26229                      -0.00000                      -0.11044
                       1.26229                      -0.00000                      -0.11044
                       1.26229                      -0.00000                      -0.11044
                       1.26229                      -0.00000                      -0.11044
                       1.26229                      -0.00000                      -0.11044
                       1.26229                      -0.00000                      -0.11044
                       1.26229                      -0.00000                      -0.11044
        </DataArray>
        <DataArray type="Float32" Name="TranslationalAcceleration" NumberOfComponents="3" format="ascii">
                      -0.05144                       2.10264                       1.02022
                       0.31123                       2.45917                       1.54239
                       1.00699                       7.06598                       4.31912
                       1.89276                      11.36365                       6.69894
                       3.31008                      16.42210                       9.32320
                       5.10279                      22.25861                      12.12918
                       6.76279                      27.94692                      14.88779
                       8.49184                      33.51889                      17.81841
                      10.58378                      39.08077                      20.84919
                      13.43008                      44.70319                      23.84350
                      17.46904                      50.41598                      26.65199
                      23.19685                      56.21753                      29.12604
                      31.16191                      62.06870                      31.16608
                      41.99372                      67.90049                      32.74280
                      56.44866                      73.61037                      33.91060
                      71.00600                      78.20632                      34.77533
                      85.74883                      81.69028                      35.41872
                     105.11309                      84.94699                      35.98714
                     115.28946                      86.44577                      36.53652
        </DataArray>
        <DataArray type="Float32" Name="RotationalAcceleration" NumberOfComponents="3" format="ascii">
                      -0.00492                      -0.03598                      -0.00474
                       0.01668                       0.21519                       0.10519
                       0.01738                       0.23178                       0.11199
                      -0.00450                      -0.03718                      -0.02337
                      -0.03372                      -0.39435                      -0.20561
                      -0.04301                      -0.48530                      -0.26092
                      -0.01315                      -0.04870                      -0.06051
                       0.04608                       0.82655                       0.34156
                       0.11208                       1.91173                       0.80502
                       0.15689                       2.93742                       1.14461
                       0.15566                       3.70628                       1.17786
                       0.09495                       4.20350                       0.77176
                      -0.01905                       4.70724                      -0.11056
                      -0.15214                       5.89913                      -1.36317
                      -0.23393                       8.97434                      -2.69065
                      -0.18783                      14.14501                      -3.50178
                      -0.00617                      21.09253                      -3.62970
                       0.37052                      31.52562                      -2.96422
                       0.65388                      38.36996                      -2.22312
        </DataArray>
        <DataArray type="Float32" Name="OrientationX" NumberOfComponents="3" format="ascii">
                       0.94930                       0.07833                      -0.30447
                       0.94931                       0.07842                      -0.30442
                       0.94933                       0.07870                      -0.30426
                       0.94937                       0.07912                      -0.30402
                       0.94944                       0.07978                      -0.30365
                       0.95867                       0.06484                      -0.27702
                       0.96476                       0.05439                      -0.25744
                       0.96968                       0.04545                      -0.24012
                       0.97445                       0.03598                      -0.22172
                       0.97889                       0.02622                      -0.20268
                       0.98268                       0.01707                      -0.18455
                       0.98601                       0.00800                      -0.16648
                       0.98869                      -0.00014                      -0.14998
                       0.99051                      -0.00608                      -0.13731
                       0.99210                      -0.01203                      -0.12486
                       0.99327                      -0.01716                      -0.11452
                       0.99405                      -0.02107                      -0.10687
                       0.99444                      -0.02311                      -0.10273
                       0.99445                      -0.02303                      -0.10268
        </DataArray>
        <DataArray type="Float32" Name="OrientationY" NumberOfComponents="3" format="ascii">
                       0.30211                      -0.49527                       0.81452
                       0.30209                      -0.49540                       0.81445
                       0.30206                      -0.49574                       0.81425
                       0.30202                      -0.49616                       0.81401
                       0.30197                      -0.49675                       0.81367
                       0.27147                      -0.49982                       0.82249
                       0.24929                      -0.50195                       0.82819
                       0.22982                      -0.50367                       0.83277
                       0.20916                      -0.50518                       0.83729
                       0.18782                      -0.50641                       0.84159
                       0.16756                      -0.50733                       0.84530
                       0.14741                      -0.50798                       0.84866
                       0.12908                      -0.50838                       0.85140
                       0.11516                      -0.50860                       0.85327
                       0.10143                      -0.50869                       0.85495
                       0.08993                      -0.50866                       0.85626
                       0.08137                      -0.50858                       0.85716
                       0.07678                      -0.50854                       0.85761
                       0.07677                      -0.50855                       0.85760
        </DataArray>
        <DataArray type="Float32" Name="OrientationZ" NumberOfComponents="3" format="ascii">
                      -0.08699                      -0.86520                      -0.49382
                      -0.08694                      -0.86512                      -0.49397
                      -0.08674                      -0.86490                      -0.49439
                      -0.08644                      -0.86462                      -0.49493
                      -0.08592                      -0.86422                      -0.49572
                      -0.08513                      -0.86370                      -0.49676
                      -0.08418                      -0.86319                      -0.49782
                      -0.08309                      -0.86270                      -0.49884
                      -0.08188                      -0.86227                      -0.49979
                      -0.08057                      -0.86189                      -0.50065
                      -0.07920                      -0.86158                      -0.50140
                      -0.07778                      -0.86133                      -0.50206
                      -0.07637                      -0.86113                      -0.50261
                      -0.07502                      -0.86098                      -0.50308
                      -0.07380                      -0.86087                      -0.50345
                      -0.07294                      -0.86080                      -0.50370
                      -0.07241                      -0.86076                      -0.50384
                      -0.07206                      -0.86073                      -0.50393
                      -0.07197                      -0.86072                      -0.50396
        </DataArray>
        <DataArray type="Float32" Name="Force" NumberOfComponents="3" format="ascii">
                       0.58089                      -3.84805                       6.63966
                     113.44199                     -30.41794                      33.32476
                     156.04196                     -67.13222                      90.21934
                     146.26824                     -83.34219                     120.43072
                    1154.20048                     193.53777                    -539.42945
                    1541.51720                     197.17500                    -610.22080
                    1809.37673                     180.36897                    -622.88932
                    2157.39234                     166.86128                    -653.03340
                    2719.22676                     158.47258                    -725.10539
                    3166.97562                     144.30138                    -765.05321
                    3812.37633                     127.68180                    -829.16619
                    4382.80357                     107.74963                    -871.75924
                    4682.45738                     102.50167                    -895.35301
                    5169.11595                      86.38247                    -926.93535
                    5623.84546                      67.41522                    -947.70082
                    5939.37738                      47.12381                    -948.18458
                    5932.15867                      27.29122                    -905.93286
                    4440.32728                      13.27751                    -662.37949
                    2397.94564                     -72.57001                    -217.91766
        </DataArray>
        <DataArray type="Float32" Name="Moment" NumberOfComponents="3" format="ascii">
                       0.00000                       0.00000                       0.00000
                       0.00000                       0.00000                       0.00000
                       0.00000                       0.00000                       0.00000
                       0.00000                       0.00000                       0.00000
                      34.27079                     345.72323                     197.36755
                      66.51018                     677.88913                     387.05559
                      85.24441                     879.61389                     502.32728
                     118.44112                    1239.51353                     708.00482
                     160.49655                    1706.13291                     974.75734
                     176.65142                    1910.04559                    1091.52272
                     186.21427                    2050.14655                    1171.88239
                     193.55159                    2171.31244                    1241.46283
                     162.07555                    1853.02130                    1059.74920
                     159.32419                    1855.44269                    1061.39324
                     152.77148                    1809.41346                    1035.29003
                     144.46895                    1731.76105                     991.01251
                     128.21324                    1548.46312                     886.20335
                      64.62543                     784.39462                     448.94635
                      57.39510                     697.58025                     399.26515
        </DataArray>
      </PointData>
      <Lines>
        <DataArray type="Int32" Name="connectivity" format="ascii">
      0      1
      1      2
      2      3
      3      4
      4      5
      5      6
      6      7
      7      8
      8      9
      9     10
     10     11
     11     12
     12     13
     13     14
     14     15
     15     16
     16     17
     17     18
        </DataArray>
        <DataArray type="Int32" Name="offsets" format="ascii">
      2
      4
      6
      8
     10
     12
     14
     16
     18
     20
     22
     24
     26
     28
     30
     32
     34
     36
        </DataArray>
      </Lines>
    </Piece>
  </PolyData>
</VTKFile>
