<?xml version="1.0"?>
<VTKFile type="PolyData" version="0.1" byte_order="LittleEndian">
  <PolyData>
    <Piece NumberOfPoints="     49" NumberOfVerts="  0" NumberOfLines="     48"
           NumberOfStrips="  0" NumberOfPolys="      0">
      <Points>
        <DataArray type="Float32" NumberOfComponents="3" format="ascii">
                      -5.13049                      -1.29780                      89.25927
                      -5.14787                      -1.47073                      89.16055
                      -5.23483                      -2.33588                      88.66654
                      -5.32172                      -3.20097                      88.17237
                      -5.40855                      -4.06597                      87.67803
                      -5.49528                      -4.93089                      87.18351
                      -5.58192                      -5.79571                      86.68879
                      -5.66844                      -6.66044                      86.19385
                      -5.75484                      -7.52506                      85.69870
                      -5.84121                      -8.39064                      85.20271
                      -5.92723                      -9.25398                      84.70770
                      -6.01319                     -10.11826                      84.21183
                      -6.09898                     -10.98243                      83.71572
                      -6.18459                     -11.84648                      83.21936
                      -6.27012                     -12.71147                      82.72212
                      -6.35523                     -13.57421                      82.22585
                      -6.44024                     -14.43789                      81.72870
                      -6.52502                     -15.30144                      81.23128
                      -6.69399                     -17.02925                      80.23505
                      -6.86180                     -18.75498                      79.23869
                      -7.02859                     -20.48078                      78.24098
                      -7.19425                     -22.20614                      77.24225
                      -7.35871                     -23.93107                      76.24255
                      -7.52199                     -25.65614                      75.24161
                      -7.68389                     -27.37979                      74.24040
                      -7.84452                     -29.10364                      73.23804
                      -8.00380                     -30.82719                      72.23490
                      -8.16172                     -32.55048                      71.23104
                      -8.31832                     -34.27406                      70.22622
                      -8.47346                     -35.99639                      69.22141
                      -8.62728                     -37.71906                      68.21576
                      -8.77976                     -39.44159                      67.20962
                      -8.93093                     -41.16398                      66.20306
                      -9.08093                     -42.88730                      65.19551
                      -9.22953                     -44.60840                      64.18886
                      -9.37709                     -46.33044                      63.18130
                      -9.52358                     -48.05235                      62.17348
                      -9.59645                     -48.91326                      61.66948
                      -9.66910                     -49.77413                      61.16541
                      -9.74152                     -50.63495                      60.66129
                      -9.77766                     -51.06535                      60.40921
                      -9.81384                     -51.49679                      60.15650
                      -9.84979                     -51.92610                      59.90500
                      -9.88579                     -52.35646                      59.65288
                      -9.92175                     -52.78680                      59.40074
                      -9.95766                     -53.21713                      59.14858
                      -9.99354                     -53.64744                      58.89641
                     -10.02938                     -54.07773                      58.64423
                     -10.05088                     -54.33600                      58.49284
        </DataArray>
      </Points>
      <PointData>
        <DataArray type="Float32" Name="Force" NumberOfComponents="3" format="ascii">
                       0.00000                       0.00000                       0.00000
                       0.00000                       0.00000                       0.00000
                       0.00000                       0.00000                       0.00000
                       0.00000                       0.00000                       0.00000
                       0.00000                       0.00000                       0.00000
                       0.00000                       0.00000                       0.00000
                       0.00000                       0.00000                       0.00000
                       0.00000                       0.00000                       0.00000
                       0.00000                       0.00000                       0.00000
                       0.00000                       0.00000                       0.00000
                       0.00000                       0.00000                       0.00000
                       0.00000                       0.00000                       0.00000
                       0.00000                       0.00000                       0.00000
                       0.00000                       0.00000                       0.00000
                       0.00000                       0.00000                       0.00000
                       0.00000                       0.00000                       0.00000
                       0.00000                       0.00000                       0.00000
                       0.00000                       0.00000                       0.00000
                       0.00000                       0.00000                       0.00000
                       0.00000                       0.00000                       0.00000
                       0.00000                       0.00000                       0.00000
                       0.00000                       0.00000                       0.00000
                       0.00000                       0.00000                       0.00000
                       0.00000                       0.00000                       0.00000
                       0.00000                       0.00000                       0.00000
                       0.00000                       0.00000                       0.00000
                       0.00000                       0.00000                       0.00000
                       0.00000                       0.00000                       0.00000
                       0.00000                       0.00000                       0.00000
                       0.00000                       0.00000                       0.00000
                       0.00000                       0.00000                       0.00000
                       0.00000                       0.00000                       0.00000
                       0.00000                       0.00000                       0.00000
                       0.00000                       0.00000                       0.00000
                       0.00000                       0.00000                       0.00000
                       0.00000                       0.00000                       0.00000
                       0.00000                       0.00000                       0.00000
                       0.00000                       0.00000                       0.00000
                       0.00000                       0.00000                       0.00000
                       0.00000                       0.00000                       0.00000
                       0.00000                       0.00000                       0.00000
                       0.00000                       0.00000                       0.00000
                       0.00000                       0.00000                       0.00000
                       0.00000                       0.00000                       0.00000
                       0.00000                       0.00000                       0.00000
                       0.00000                       0.00000                       0.00000
                       0.00000                       0.00000                       0.00000
                       0.00000                       0.00000                       0.00000
                       0.00000                       0.00000                       0.00000
        </DataArray>
        <DataArray type="Float32" Name="Moment" NumberOfComponents="3" format="ascii">
                       0.00000                       0.00000                       0.00000
                       0.00000                       0.00000                       0.00000
                       0.00000                       0.00000                       0.00000
                       0.00000                       0.00000                       0.00000
                       0.00000                       0.00000                       0.00000
                       0.00000                       0.00000                       0.00000
                       0.00000                       0.00000                       0.00000
                       0.00000                       0.00000                       0.00000
                       0.00000                       0.00000                       0.00000
                       0.00000                       0.00000                       0.00000
                       0.00000                       0.00000                       0.00000
                       0.00000                       0.00000                       0.00000
                       0.00000                       0.00000                       0.00000
                       0.00000                       0.00000                       0.00000
                       0.00000                       0.00000                       0.00000
                       0.00000                       0.00000                       0.00000
                       0.00000                       0.00000                       0.00000
                       0.00000                       0.00000                       0.00000
                       0.00000                       0.00000                       0.00000
                       0.00000                       0.00000                       0.00000
                       0.00000                       0.00000                       0.00000
                       0.00000                       0.00000                       0.00000
                       0.00000                       0.00000                       0.00000
                       0.00000                       0.00000                       0.00000
                       0.00000                       0.00000                       0.00000
                       0.00000                       0.00000                       0.00000
                       0.00000                       0.00000                       0.00000
                       0.00000                       0.00000                       0.00000
                       0.00000                       0.00000                       0.00000
                       0.00000                       0.00000                       0.00000
                       0.00000                       0.00000                       0.00000
                       0.00000                       0.00000                       0.00000
                       0.00000                       0.00000                       0.00000
                       0.00000                       0.00000                       0.00000
                       0.00000                       0.00000                       0.00000
                       0.00000                       0.00000                       0.00000
                       0.00000                       0.00000                       0.00000
                       0.00000                       0.00000                       0.00000
                       0.00000                       0.00000                       0.00000
                       0.00000                       0.00000                       0.00000
                       0.00000                       0.00000                       0.00000
                       0.00000                       0.00000                       0.00000
                       0.00000                       0.00000                       0.00000
                       0.00000                       0.00000                       0.00000
                       0.00000                       0.00000                       0.00000
                       0.00000                       0.00000                       0.00000
                       0.00000                       0.00000                       0.00000
                       0.00000                       0.00000                       0.00000
                       0.00000                       0.00000                       0.00000
        </DataArray>
        <DataArray type="Float32" Name="TranslationalVelocity" NumberOfComponents="3" format="ascii">
                      -0.14332                       0.94943                      -1.63820
                      -0.16242                       1.07596                      -1.85649
                      -0.25797                       1.70915                      -2.94856
                      -0.35350                       2.34252                      -4.04054
                      -0.44903                       2.97611                      -5.13242
                      -0.54455                       3.60992                      -6.22420
                      -0.64005                       4.24397                      -7.31585
                      -0.73555                       4.87828                      -8.40739
                      -0.83104                       5.51284                      -9.49879
                      -0.92663                       6.14847                     -10.59140
                      -1.02197                       6.78281                     -11.68118
                      -1.11742                       7.41823                     -12.77216
                      -1.21285                       8.05394                     -13.86298
                      -1.30828                       8.68995                     -14.95366
                      -1.40380                       9.32705                     -16.04552
                      -1.49908                       9.96289                     -17.13455
                      -1.59446                      10.59982                     -18.22476
                      -1.68983                      11.23706                     -19.31482
                      -1.88064                      12.51325                     -21.49581
                      -2.07122                      13.78948                     -23.67418
                      -2.26181                      15.06730                     -25.85263
                      -2.45235                      16.34627                     -28.03053
                      -2.64285                      17.62634                     -30.20789
                      -2.83336                      18.90785                     -32.38542
                      -3.02371                      20.18955                     -34.56116
                      -3.21408                      21.47255                     -36.73715
                      -3.40443                      22.75639                     -38.91277
                      -3.59474                      24.04099                     -41.08806
                      -3.78508                      25.32666                     -43.26372
                      -3.97529                      26.61215                     -45.43778
                      -4.16554                      27.89856                     -47.61230
                      -4.35576                      29.18543                     -49.78662
                      -4.54598                      30.47269                     -51.96077
                      -4.73630                      31.76108                     -54.13610
                      -4.92637                      33.04817                     -56.30862
                      -5.11654                      34.33629                     -58.48232
                      -5.30670                      35.62463                     -60.65587
                      -5.40178                      36.26888                     -61.74258
                      -5.49685                      36.91317                     -62.82925
                      -5.59191                      37.55752                     -63.91585
                      -5.63944                      37.87971                     -64.45914
                      -5.68709                      38.20270                     -65.00374
                      -5.73450                      38.52413                     -65.54566
                      -5.78203                      38.84636                     -66.08889
                      -5.82955                      39.16860                     -66.63211
                      -5.87708                      39.49086                     -67.17530
                      -5.92460                      39.81313                     -67.71848
                      -5.97212                      40.13542                     -68.26163
                      -6.00064                      40.32889                     -68.58765
        </DataArray>
        <DataArray type="Float32" Name="RotationalVelocity" NumberOfComponents="3" format="ascii">
                       1.26229                      -0.00000                      -0.11044
                       1.26229                       0.00000                      -0.11044
                       1.26229                      -0.00000                      -0.11044
                       1.26229                      -0.00000                      -0.11044
                       1.26229                       0.00000                      -0.11044
                       1.26229                      -0.00000                      -0.11044
                       1.26229                      -0.00000                      -0.11044
                       1.26229                      -0.00000                      -0.11044
                       1.26229                      -0.00000                      -0.11044
                       1.26229                      -0.00000                      -0.11044
                       1.26229                      -0.00000                      -0.11044
                       1.26229                      -0.00000                      -0.11044
                       1.26229                      -0.00000                      -0.11044
                       1.26229                      -0.00000                      -0.11044
                       1.26229                      -0.00000                      -0.11044
                       1.26229                      -0.00000                      -0.11044
                       1.26229                      -0.00000                      -0.11044
                       1.26229                      -0.00000                      -0.11044
                       1.26229                      -0.00000                      -0.11044
                       1.26229                      -0.00000                      -0.11044
                       1.26229                      -0.00000                      -0.11044
                       1.26229                      -0.00000                      -0.11044
                       1.26229                       0.00000                      -0.11044
                       1.26229                      -0.00000                      -0.11044
                       1.26229                      -0.00000                      -0.11044
                       1.26229                      -0.00000                      -0.11044
                       1.26229                      -0.00000                      -0.11044
                       1.26229                      -0.00000                      -0.11044
                       1.26229                      -0.00000                      -0.11044
                       1.26229                      -0.00000                      -0.11044
                       1.26229                      -0.00000                      -0.11044
                       1.26229                      -0.00000                      -0.11044
                       1.26229                      -0.00000                      -0.11044
                       1.26229                      -0.00000                      -0.11044
                       1.26229                       0.00000                      -0.11044
                       1.26229                      -0.00000                      -0.11044
                       1.26229                      -0.00000                      -0.11044
                       1.26229                      -0.00000                      -0.11044
                       1.26229                      -0.00000                      -0.11044
                       1.26229                      -0.00000                      -0.11044
                       1.26229                      -0.00000                      -0.11044
                       1.26229                      -0.00000                      -0.11044
                       1.26229                      -0.00000                      -0.11044
                       1.26229                      -0.00000                      -0.11044
                       1.26229                      -0.00000                      -0.11044
                       1.26229                      -0.00000                      -0.11044
                       1.26229                      -0.00000                      -0.11044
                       1.26229                      -0.00000                      -0.11044
                       1.26229                      -0.00000                      -0.11044
        </DataArray>
        <DataArray type="Float32" Name="TranslationalAcceleration" NumberOfComponents="3" format="ascii">
                       0.00000                       0.00000                       0.00000
                       0.11883                       2.36136                       1.35818
                       0.18875                       3.75041                       2.15744
                       0.25870                       5.13936                       2.95694
                       0.32867                       6.52818                       3.75671
                       0.39866                       7.91686                       4.55676
                       0.46869                       9.30540                       5.35711
                       0.53874                      10.69377                       6.15779
                       0.60882                      12.08198                       6.95879
                       0.67901                      13.47172                       7.76113
                       0.74907                      14.85787                       8.56186
                       0.81924                      16.24553                       9.36393
                       0.88944                      17.63301                      10.16638
                       0.95968                      19.02030                      10.96921
                       1.03004                      20.40909                      11.77341
                       1.10026                      21.79428                      12.57603
                       1.17060                      23.18097                      13.38002
                       1.24097                      24.56747                      14.18440
                       1.38191                      27.34157                      15.79532
                       1.52285                      30.11235                      17.40629
                       1.66397                      32.88324                      19.01926
                       1.80521                      35.65340                      20.63369
                       1.94658                      38.42290                      22.24950
                       2.08810                      41.19261                      23.86714
                       2.22965                      43.96004                      25.48501
                       2.37134                      46.72779                      27.10453
                       2.51312                      49.49507                      28.72511
                       2.65499                      52.26192                      30.34664
                       2.79697                      55.02925                      31.96953
                       2.93893                      57.79455                      33.59218
                       3.08100                      60.56042                      35.21600
                       3.22312                      63.32605                      36.84040
                       3.36528                      66.09145                      38.46529
                       3.50756                      68.85837                      40.09161
                       3.64970                      71.62170                      41.71628
                       3.79196                      74.38654                      43.34227
                       3.93424                      77.15119                      44.96852
                       4.00538                      78.53343                      45.78174
                       4.07654                      79.91561                      46.59503
                       4.14770                      81.29772                      47.40837
                       4.18328                      81.98875                      47.81507
                       4.21895                      82.68146                      48.22279
                       4.25444                      83.37074                      48.62852
                       4.29003                      84.06171                      49.03526
                       4.32562                      84.75265                      49.44203
                       4.36121                      85.44357                      49.84881
                       4.39680                      86.13446                      50.25561
                       4.43239                      86.82533                      50.66244
                       4.45375                      87.24000                      50.90664
        </DataArray>
        <DataArray type="Float32" Name="RotationalAcceleration" NumberOfComponents="3" format="ascii">
                       0.00000                       0.00000                       0.00000
                       0.00000                       0.00000                       0.00000
                       0.00000                       0.00000                       0.00000
                       0.00000                       0.00000                       0.00000
                       0.00000                       0.00000                       0.00000
                       0.00000                       0.00000                       0.00000
                       0.00000                       0.00000                       0.00000
                       0.00000                       0.00000                       0.00000
                       0.00000                       0.00000                       0.00000
                       0.00000                       0.00000                       0.00000
                       0.00000                       0.00000                       0.00000
                       0.00000                       0.00000                       0.00000
                       0.00000                       0.00000                       0.00000
                       0.00000                       0.00000                       0.00000
                       0.00000                       0.00000                       0.00000
                       0.00000                       0.00000                       0.00000
                       0.00000                       0.00000                       0.00000
                       0.00000                       0.00000                       0.00000
                       0.00000                       0.00000                       0.00000
                       0.00000                       0.00000                       0.00000
                       0.00000                       0.00000                       0.00000
                       0.00000                       0.00000                       0.00000
                       0.00000                       0.00000                       0.00000
                       0.00000                       0.00000                       0.00000
                       0.00000                       0.00000                       0.00000
                       0.00000                       0.00000                       0.00000
                       0.00000                       0.00000                       0.00000
                       0.00000                       0.00000                       0.00000
                       0.00000                       0.00000                       0.00000
                       0.00000                       0.00000                       0.00000
                       0.00000                       0.00000                       0.00000
                       0.00000                       0.00000                       0.00000
                       0.00000                       0.00000                       0.00000
                       0.00000                       0.00000                       0.00000
                       0.00000                       0.00000                       0.00000
                       0.00000                       0.00000                       0.00000
                       0.00000                       0.00000                       0.00000
                       0.00000                       0.00000                       0.00000
                       0.00000                       0.00000                       0.00000
                       0.00000                       0.00000                       0.00000
                       0.00000                       0.00000                       0.00000
                       0.00000                       0.00000                       0.00000
                       0.00000                       0.00000                       0.00000
                       0.00000                       0.00000                       0.00000
                       0.00000                       0.00000                       0.00000
                       0.00000                       0.00000                       0.00000
                       0.00000                       0.00000                       0.00000
                       0.00000                       0.00000                       0.00000
                       0.00000                       0.00000                       0.00000
        </DataArray>
        <DataArray type="Float32" Name="OrientationX" NumberOfComponents="3" format="ascii">
                       0.94930                       0.07833                      -0.30447
                       0.94909                       0.07868                      -0.30502
                       0.94826                       0.08011                      -0.30723
                       0.94774                       0.08105                      -0.30858
                       0.94752                       0.08153                      -0.30914
                       0.94756                       0.08160                      -0.30898
                       0.94785                       0.08129                      -0.30817
                       0.94836                       0.08066                      -0.30678
                       0.94906                       0.07971                      -0.30486
                       0.94992                       0.07850                      -0.30247
                       0.95093                       0.07705                      -0.29966
                       0.95206                       0.07539                      -0.29648
                       0.95329                       0.07355                      -0.29298
                       0.95460                       0.07154                      -0.28918
                       0.95597                       0.06940                      -0.28514
                       0.95739                       0.06714                      -0.28090
                       0.95884                       0.06479                      -0.27647
                       0.96030                       0.06235                      -0.27190
                       0.96325                       0.05731                      -0.26242
                       0.96615                       0.05214                      -0.25267
                       0.96894                       0.04693                      -0.24279
                       0.97160                       0.04176                      -0.23293
                       0.97409                       0.03668                      -0.22318
                       0.97640                       0.03173                      -0.21361
                       0.97854                       0.02695                      -0.20428
                       0.98050                       0.02235                      -0.19523
                       0.98230                       0.01794                      -0.18646
                       0.98394                       0.01372                      -0.17799
                       0.98543                       0.00968                      -0.16982
                       0.98678                       0.00581                      -0.16194
                       0.98802                       0.00211                      -0.15434
                       0.98913                      -0.00144                      -0.14703
                       0.99014                      -0.00483                      -0.14000
                       0.99105                      -0.00808                      -0.13327
                       0.99185                      -0.01116                      -0.12690
                       0.99256                      -0.01407                      -0.12090
                       0.99318                      -0.01677                      -0.11537
                       0.99345                      -0.01803                      -0.11281
                       0.99370                      -0.01922                      -0.11041
                       0.99392                      -0.02033                      -0.10818
                       0.99403                      -0.02085                      -0.10714
                       0.99412                      -0.02135                      -0.10614
                       0.99421                      -0.02183                      -0.10521
                       0.99429                      -0.02228                      -0.10432
                       0.99437                      -0.02270                      -0.10350
                       0.99444                      -0.02309                      -0.10274
                       0.99450                      -0.02346                      -0.10205
                       0.99456                      -0.02379                      -0.10143
                       0.99459                      -0.02397                      -0.10109
        </DataArray>
        <DataArray type="Float32" Name="OrientationY" NumberOfComponents="3" format="ascii">
                       0.30211                      -0.49527                       0.81452
                       0.30276                      -0.49523                       0.81430
                       0.30537                      -0.49511                       0.81340
                       0.30698                      -0.49508                       0.81281
                       0.30769                      -0.49514                       0.81250
                       0.30758                      -0.49528                       0.81246
                       0.30671                      -0.49550                       0.81265
                       0.30518                      -0.49579                       0.81306
                       0.30304                      -0.49613                       0.81365
                       0.30035                      -0.49653                       0.81440
                       0.29719                      -0.49696                       0.81530
                       0.29360                      -0.49742                       0.81631
                       0.28964                      -0.49792                       0.81743
                       0.28535                      -0.49843                       0.81863
                       0.28077                      -0.49895                       0.81989
                       0.27597                      -0.49948                       0.82120
                       0.27096                      -0.50001                       0.82254
                       0.26578                      -0.50054                       0.82391
                       0.25505                      -0.50157                       0.82666
                       0.24403                      -0.50255                       0.82939
                       0.23288                      -0.50347                       0.83204
                       0.22175                      -0.50430                       0.83457
                       0.21078                      -0.50505                       0.83696
                       0.20003                      -0.50572                       0.83919
                       0.18957                      -0.50630                       0.84126
                       0.17944                      -0.50680                       0.84318
                       0.16965                      -0.50723                       0.84495
                       0.16022                      -0.50759                       0.84657
                       0.15113                      -0.50789                       0.84806
                       0.14239                      -0.50813                       0.84943
                       0.13397                      -0.50832                       0.85069
                       0.12588                      -0.50846                       0.85183
                       0.11811                      -0.50856                       0.85288
                       0.11068                      -0.50863                       0.85384
                       0.10362                      -0.50867                       0.85470
                       0.09699                      -0.50867                       0.85548
                       0.09087                      -0.50866                       0.85616
                       0.08803                      -0.50865                       0.85646
                       0.08536                      -0.50863                       0.85675
                       0.08287                      -0.50861                       0.85700
                       0.08171                      -0.50860                       0.85712
                       0.08060                      -0.50858                       0.85723
                       0.07955                      -0.50857                       0.85734
                       0.07857                      -0.50856                       0.85743
                       0.07765                      -0.50855                       0.85752
                       0.07680                      -0.50854                       0.85761
                       0.07602                      -0.50852                       0.85769
                       0.07532                      -0.50851                       0.85775
                       0.07493                      -0.50851                       0.85779
        </DataArray>
        <DataArray type="Float32" Name="OrientationZ" NumberOfComponents="3" format="ascii">
                      -0.08699                      -0.86520                      -0.49382
                      -0.08698                      -0.86519                      -0.49384
                      -0.08695                      -0.86513                      -0.49395
                      -0.08689                      -0.86506                      -0.49408
                      -0.08682                      -0.86498                      -0.49424
                      -0.08674                      -0.86489                      -0.49441
                      -0.08664                      -0.86479                      -0.49460
                      -0.08652                      -0.86469                      -0.49480
                      -0.08639                      -0.86458                      -0.49501
                      -0.08625                      -0.86447                      -0.49524
                      -0.08610                      -0.86435                      -0.49547
                      -0.08593                      -0.86422                      -0.49571
                      -0.08576                      -0.86410                      -0.49596
                      -0.08557                      -0.86397                      -0.49621
                      -0.08537                      -0.86385                      -0.49647
                      -0.08517                      -0.86372                      -0.49672
                      -0.08495                      -0.86359                      -0.49698
                      -0.08472                      -0.86347                      -0.49724
                      -0.08424                      -0.86322                      -0.49776
                      -0.08373                      -0.86297                      -0.49826
                      -0.08319                      -0.86274                      -0.49876
                      -0.08261                      -0.86252                      -0.49924
                      -0.08202                      -0.86231                      -0.49970
                      -0.08140                      -0.86212                      -0.50013
                      -0.08075                      -0.86194                      -0.50054
                      -0.08009                      -0.86177                      -0.50093
                      -0.07942                      -0.86162                      -0.50129
                      -0.07873                      -0.86149                      -0.50163
                      -0.07804                      -0.86137                      -0.50195
                      -0.07735                      -0.86126                      -0.50224
                      -0.07666                      -0.86117                      -0.50251
                      -0.07598                      -0.86108                      -0.50275
                      -0.07532                      -0.86101                      -0.50298
                      -0.07469                      -0.86095                      -0.50318
                      -0.07409                      -0.86089                      -0.50337
                      -0.07354                      -0.86084                      -0.50353
                      -0.07304                      -0.86080                      -0.50367
                      -0.07282                      -0.86079                      -0.50373
                      -0.07262                      -0.86077                      -0.50378
                      -0.07244                      -0.86076                      -0.50383
                      -0.07236                      -0.86075                      -0.50385
                      -0.07229                      -0.86075                      -0.50387
                      -0.07222                      -0.86074                      -0.50389
                      -0.07216                      -0.86074                      -0.50391
                      -0.07210                      -0.86073                      -0.50392
                      -0.07205                      -0.86073                      -0.50394
                      -0.07201                      -0.86073                      -0.50395
                      -0.07198                      -0.86073                      -0.50395
                      -0.07197                      -0.86072                      -0.50396
        </DataArray>
      </PointData>
      <Lines>
        <DataArray type="Int32" Name="connectivity" format="ascii">
      0      1
      1      2
      2      3
      3      4
      4      5
      5      6
      6      7
      7      8
      8      9
      9     10
     10     11
     11     12
     12     13
     13     14
     14     15
     15     16
     16     17
     17     18
     18     19
     19     20
     20     21
     21     22
     22     23
     23     24
     24     25
     25     26
     26     27
     27     28
     28     29
     29     30
     30     31
     31     32
     32     33
     33     34
     34     35
     35     36
     36     37
     37     38
     38     39
     39     40
     40     41
     41     42
     42     43
     43     44
     44     45
     45     46
     46     47
     47     48
        </DataArray>
        <DataArray type="Int32" Name="offsets" format="ascii">
      2
      4
      6
      8
     10
     12
     14
     16
     18
     20
     22
     24
     26
     28
     30
     32
     34
     36
     38
     40
     42
     44
     46
     48
     50
     52
     54
     56
     58
     60
     62
     64
     66
     68
     70
     72
     74
     76
     78
     80
     82
     84
     86
     88
     90
     92
     94
     96
        </DataArray>
      </Lines>
    </Piece>
  </PolyData>
</VTKFile>
