<?xml version="1.0"?>
<VTKFile type="PolyData" version="0.1" byte_order="LittleEndian">
  <PolyData>
    <Piece NumberOfPoints="     12" NumberOfVerts="  0" NumberOfLines="     11"
           NumberOfStrips="  0" NumberOfPolys="      0">
      <Points>
        <DataArray type="Float32" NumberOfComponents="3" format="ascii">
                       0.00000                       0.00000                       0.00000
                       0.00000                       0.00000                       8.52610
                       0.00000                       0.00000                      17.05300
                       0.00000                       0.00000                      25.57900
                       0.00000                       0.00000                      34.10500
                       0.00000                       0.00000                      42.63300
                       0.00000                       0.00000                      51.15800
                       0.00000                       0.00000                      59.68500
                       0.00000                       0.00000                      68.21100
                       0.00000                       0.00000                      76.73800
                       0.00000                       0.00000                      85.26800
                       0.00000                       0.00000                      87.60000
        </DataArray>
      </Points>
      <PointData>
        <DataArray type="Float32" Name="Force" NumberOfComponents="3" format="ascii">
                       0.00000                       0.00000                       0.00000
                       0.00000                       0.00000                       0.00000
                       0.00000                       0.00000                       0.00000
                       0.00000                       0.00000                       0.00000
                       0.00000                       0.00000                       0.00000
                       0.00000                       0.00000                       0.00000
                       0.00000                       0.00000                       0.00000
                       0.00000                       0.00000                       0.00000
                       0.00000                       0.00000                       0.00000
                       0.00000                       0.00000                       0.00000
                       0.00000                       0.00000                       0.00000
                       0.00000                       0.00000                       0.00000
        </DataArray>
        <DataArray type="Float32" Name="Moment" NumberOfComponents="3" format="ascii">
                       0.00000                       0.00000                       0.00000
                       0.00000                       0.00000                       0.00000
                       0.00000                       0.00000                       0.00000
                       0.00000                       0.00000                       0.00000
                       0.00000                       0.00000                       0.00000
                       0.00000                       0.00000                       0.00000
                       0.00000                       0.00000                       0.00000
                       0.00000                       0.00000                       0.00000
                       0.00000                       0.00000                       0.00000
                       0.00000                       0.00000                       0.00000
                       0.00000                       0.00000                       0.00000
                       0.00000                       0.00000                       0.00000
        </DataArray>
        <DataArray type="Float32" Name="TranslationalVelocity" NumberOfComponents="3" format="ascii">
                       0.00000                       0.00000                       0.00000
                       0.00000                       0.00000                       0.00000
                       0.00000                       0.00000                       0.00000
                       0.00000                       0.00000                       0.00000
                       0.00000                       0.00000                       0.00000
                       0.00000                       0.00000                       0.00000
                       0.00000                       0.00000                       0.00000
                       0.00000                       0.00000                       0.00000
                       0.00000                       0.00000                       0.00000
                       0.00000                       0.00000                       0.00000
                       0.00000                       0.00000                       0.00000
                       0.00000                       0.00000                       0.00000
        </DataArray>
        <DataArray type="Float32" Name="TranslationalAcceleration" NumberOfComponents="3" format="ascii">
                       0.00000                       0.00000                       0.00000
                       0.00000                       0.00000                       0.00000
                       0.00000                       0.00000                       0.00000
                       0.00000                       0.00000                       0.00000
                       0.00000                       0.00000                       0.00000
                       0.00000                       0.00000                       0.00000
                       0.00000                       0.00000                       0.00000
                       0.00000                       0.00000                       0.00000
                       0.00000                       0.00000                       0.00000
                       0.00000                       0.00000                       0.00000
                       0.00000                       0.00000                       0.00000
                       0.00000                       0.00000                       0.00000
        </DataArray>
        <DataArray type="Float32" Name="OrientationX" NumberOfComponents="3" format="ascii">
                       1.00000                       0.00000                       0.00000
                       1.00000                       0.00000                       0.00000
                       1.00000                       0.00000                       0.00000
                       1.00000                       0.00000                       0.00000
                       1.00000                       0.00000                       0.00000
                       1.00000                       0.00000                       0.00000
                       1.00000                       0.00000                       0.00000
                       1.00000                       0.00000                       0.00000
                       1.00000                       0.00000                       0.00000
                       1.00000                       0.00000                       0.00000
                       1.00000                       0.00000                       0.00000
                       1.00000                       0.00000                       0.00000
        </DataArray>
        <DataArray type="Float32" Name="OrientationY" NumberOfComponents="3" format="ascii">
                       0.00000                       1.00000                       0.00000
                       0.00000                       1.00000                       0.00000
                       0.00000                       1.00000                       0.00000
                       0.00000                       1.00000                       0.00000
                       0.00000                       1.00000                       0.00000
                       0.00000                       1.00000                       0.00000
                       0.00000                       1.00000                       0.00000
                       0.00000                       1.00000                       0.00000
                       0.00000                       1.00000                       0.00000
                       0.00000                       1.00000                       0.00000
                       0.00000                       1.00000                       0.00000
                       0.00000                       1.00000                       0.00000
        </DataArray>
        <DataArray type="Float32" Name="OrientationZ" NumberOfComponents="3" format="ascii">
                       0.00000                       0.00000                       1.00000
                       0.00000                       0.00000                       1.00000
                       0.00000                       0.00000                       1.00000
                       0.00000                       0.00000                       1.00000
                       0.00000                       0.00000                       1.00000
                       0.00000                       0.00000                       1.00000
                       0.00000                       0.00000                       1.00000
                       0.00000                       0.00000                       1.00000
                       0.00000                       0.00000                       1.00000
                       0.00000                       0.00000                       1.00000
                       0.00000                       0.00000                       1.00000
                       0.00000                       0.00000                       1.00000
        </DataArray>
      </PointData>
      <Lines>
        <DataArray type="Int32" Name="connectivity" format="ascii">
      0      1
      1      2
      2      3
      3      4
      4      5
      5      6
      6      7
      7      8
      8      9
      9     10
     10     11
        </DataArray>
        <DataArray type="Int32" Name="offsets" format="ascii">
      2
      4
      6
      8
     10
     12
     14
     16
     18
     20
     22
        </DataArray>
      </Lines>
    </Piece>
  </PolyData>
</VTKFile>
