<?xml version="1.0"?>
<VTKFile type="PolyData" version="0.1" byte_order="LittleEndian">
  <PolyData>
    <Piece NumberOfPoints="     49" NumberOfVerts="  0" NumberOfLines="     48"
           NumberOfStrips="  0" NumberOfPolys="      0">
      <Points>
        <DataArray type="Float32" NumberOfComponents="3" format="ascii">
                      -4.93457                       0.00000                      91.49858
                      -4.92585                      -0.00000                      91.69827
                      -4.88219                      -0.00000                      92.69734
                      -4.83847                      -0.00000                      93.69642
                      -4.79468                      -0.00000                      94.69550
                      -4.75080                      -0.00001                      95.69459
                      -4.70684                      -0.00002                      96.69368
                      -4.66279                      -0.00003                      97.69278
                      -4.61863                      -0.00005                      98.69188
                      -4.57431                      -0.00008                      99.69220
                      -4.52997                      -0.00012                     100.69007
                      -4.48546                      -0.00018                     101.68917
                      -4.44082                      -0.00024                     102.68827
                      -4.39603                      -0.00032                     103.68737
                      -4.35104                      -0.00041                     104.68770
                      -4.30600                      -0.00052                     105.68557
                      -4.26073                      -0.00064                     106.68466
                      -4.21530                      -0.00078                     107.68375
                      -4.12383                      -0.00111                     109.68315
                      -4.03166                      -0.00152                     111.68070
                      -3.93862                      -0.00201                     113.67884
                      -3.84469                      -0.00259                     115.67697
                      -3.74982                      -0.00325                     117.67508
                      -3.65393                      -0.00400                     119.67378
                      -3.55707                      -0.00483                     121.67123
                      -3.45911                      -0.00576                     123.66926
                      -3.36006                      -0.00677                     125.66727
                      -3.25988                      -0.00787                     127.66524
                      -3.15853                      -0.00904                     129.66379
                      -3.05609                      -0.01030                     131.66107
                      -2.95247                      -0.01162                     133.65893
                      -2.84770                      -0.01301                     135.65673
                      -2.74179                      -0.01445                     137.65447
                      -2.63471                      -0.01594                     139.65337
                      -2.52668                      -0.01747                     141.64975
                      -2.41755                      -0.01903                     143.64727
                      -2.30743                      -0.02061                     145.64469
                      -2.25203                      -0.02140                     146.64336
                      -2.19641                      -0.02220                     147.64200
                      -2.14057                      -0.02299                     148.64061
                      -2.11258                      -0.02338                     149.13991
                      -2.08447                      -0.02377                     149.64042
                      -2.05646                      -0.02416                     150.13847
                      -2.02833                      -0.02455                     150.63773
                      -2.00015                      -0.02494                     151.13699
                      -1.97194                      -0.02533                     151.63624
                      -1.94368                      -0.02571                     152.13548
                      -1.91538                      -0.02609                     152.63471
                      -1.89838                      -0.02632                     152.93436
        </DataArray>
      </Points>
      <PointData>
        <DataArray type="Float32" Name="Force" NumberOfComponents="3" format="ascii">
                       0.00000                       0.00000                       0.00000
                       0.00000                       0.00000                       0.00000
                       0.00000                       0.00000                       0.00000
                       0.00000                       0.00000                       0.00000
                       0.00000                       0.00000                       0.00000
                       0.00000                       0.00000                       0.00000
                       0.00000                       0.00000                       0.00000
                       0.00000                       0.00000                       0.00000
                       0.00000                       0.00000                       0.00000
                       0.00000                       0.00000                       0.00000
                       0.00000                       0.00000                       0.00000
                       0.00000                       0.00000                       0.00000
                       0.00000                       0.00000                       0.00000
                       0.00000                       0.00000                       0.00000
                       0.00000                       0.00000                       0.00000
                       0.00000                       0.00000                       0.00000
                       0.00000                       0.00000                       0.00000
                       0.00000                       0.00000                       0.00000
                       0.00000                       0.00000                       0.00000
                       0.00000                       0.00000                       0.00000
                       0.00000                       0.00000                       0.00000
                       0.00000                       0.00000                       0.00000
                       0.00000                       0.00000                       0.00000
                       0.00000                       0.00000                       0.00000
                       0.00000                       0.00000                       0.00000
                       0.00000                       0.00000                       0.00000
                       0.00000                       0.00000                       0.00000
                       0.00000                       0.00000                       0.00000
                       0.00000                       0.00000                       0.00000
                       0.00000                       0.00000                       0.00000
                       0.00000                       0.00000                       0.00000
                       0.00000                       0.00000                       0.00000
                       0.00000                       0.00000                       0.00000
                       0.00000                       0.00000                       0.00000
                       0.00000                       0.00000                       0.00000
                       0.00000                       0.00000                       0.00000
                       0.00000                       0.00000                       0.00000
                       0.00000                       0.00000                       0.00000
                       0.00000                       0.00000                       0.00000
                       0.00000                       0.00000                       0.00000
                       0.00000                       0.00000                       0.00000
                       0.00000                       0.00000                       0.00000
                       0.00000                       0.00000                       0.00000
                       0.00000                       0.00000                       0.00000
                       0.00000                       0.00000                       0.00000
                       0.00000                       0.00000                       0.00000
                       0.00000                       0.00000                       0.00000
                       0.00000                       0.00000                       0.00000
                       0.00000                       0.00000                       0.00000
        </DataArray>
        <DataArray type="Float32" Name="Moment" NumberOfComponents="3" format="ascii">
                       0.00000                       0.00000                       0.00000
                       0.00000                       0.00000                       0.00000
                       0.00000                       0.00000                       0.00000
                       0.00000                       0.00000                       0.00000
                       0.00000                       0.00000                       0.00000
                       0.00000                       0.00000                       0.00000
                       0.00000                       0.00000                       0.00000
                       0.00000                       0.00000                       0.00000
                       0.00000                       0.00000                       0.00000
                       0.00000                       0.00000                       0.00000
                       0.00000                       0.00000                       0.00000
                       0.00000                       0.00000                       0.00000
                       0.00000                       0.00000                       0.00000
                       0.00000                       0.00000                       0.00000
                       0.00000                       0.00000                       0.00000
                       0.00000                       0.00000                       0.00000
                       0.00000                       0.00000                       0.00000
                       0.00000                       0.00000                       0.00000
                       0.00000                       0.00000                       0.00000
                       0.00000                       0.00000                       0.00000
                       0.00000                       0.00000                       0.00000
                       0.00000                       0.00000                       0.00000
                       0.00000                       0.00000                       0.00000
                       0.00000                       0.00000                       0.00000
                       0.00000                       0.00000                       0.00000
                       0.00000                       0.00000                       0.00000
                       0.00000                       0.00000                       0.00000
                       0.00000                       0.00000                       0.00000
                       0.00000                       0.00000                       0.00000
                       0.00000                       0.00000                       0.00000
                       0.00000                       0.00000                       0.00000
                       0.00000                       0.00000                       0.00000
                       0.00000                       0.00000                       0.00000
                       0.00000                       0.00000                       0.00000
                       0.00000                       0.00000                       0.00000
                       0.00000                       0.00000                       0.00000
                       0.00000                       0.00000                       0.00000
                       0.00000                       0.00000                       0.00000
                       0.00000                       0.00000                       0.00000
                       0.00000                       0.00000                       0.00000
                       0.00000                       0.00000                       0.00000
                       0.00000                       0.00000                       0.00000
                       0.00000                       0.00000                       0.00000
                       0.00000                       0.00000                       0.00000
                       0.00000                       0.00000                       0.00000
                       0.00000                       0.00000                       0.00000
                       0.00000                       0.00000                       0.00000
                       0.00000                       0.00000                       0.00000
                       0.00000                       0.00000                       0.00000
        </DataArray>
        <DataArray type="Float32" Name="TranslationalVelocity" NumberOfComponents="3" format="ascii">
                       0.00000                      -1.89885                       0.00000
                      -0.00000                      -2.15188                      -0.00000
                      -0.00000                      -3.41782                      -0.00000
                      -0.00000                      -4.68378                      -0.00000
                      -0.00000                      -5.94974                      -0.00000
                      -0.00000                      -7.21573                      -0.00001
                      -0.00000                      -8.48172                      -0.00002
                      -0.00000                      -9.74773                      -0.00004
                      -0.00001                     -11.01376                      -0.00007
                      -0.00001                     -12.28135                      -0.00011
                      -0.00001                     -13.54585                      -0.00016
                      -0.00002                     -14.81191                      -0.00022
                      -0.00003                     -16.07800                      -0.00030
                      -0.00004                     -17.34409                      -0.00040
                      -0.00005                     -18.61176                      -0.00052
                      -0.00006                     -19.87633                      -0.00065
                      -0.00007                     -21.14247                      -0.00081
                      -0.00009                     -22.40863                      -0.00098
                      -0.00012                     -24.94255                      -0.00140
                      -0.00017                     -27.47421                      -0.00192
                      -0.00022                     -30.00672                      -0.00254
                      -0.00029                     -32.53930                      -0.00326
                      -0.00036                     -35.07196                      -0.00410
                      -0.00044                     -37.60548                      -0.00505
                      -0.00053                     -40.13753                      -0.00610
                      -0.00064                     -42.67044                      -0.00727
                      -0.00075                     -45.20344                      -0.00855
                      -0.00087                     -47.73652                      -0.00993
                      -0.00100                     -50.27046                      -0.01142
                      -0.00114                     -52.80292                      -0.01300
                      -0.00128                     -55.33622                      -0.01467
                      -0.00144                     -57.86959                      -0.01642
                      -0.00160                     -60.40301                      -0.01824
                      -0.00176                     -62.93803                      -0.02012
                      -0.00193                     -65.46996                      -0.02206
                      -0.00210                     -68.00345                      -0.02403
                      -0.00228                     -70.53693                      -0.02602
                      -0.00236                     -71.80366                      -0.02702
                      -0.00245                     -73.07038                      -0.02802
                      -0.00254                     -74.33708                      -0.02902
                      -0.00258                     -74.97042                      -0.02951
                      -0.00263                     -75.60532                      -0.03001
                      -0.00267                     -76.23709                      -0.03050
                      -0.00271                     -76.87042                      -0.03099
                      -0.00275                     -77.50374                      -0.03148
                      -0.00280                     -78.13705                      -0.03197
                      -0.00284                     -78.77035                      -0.03245
                      -0.00288                     -79.40365                      -0.03294
                      -0.00291                     -79.78377                      -0.03322
        </DataArray>
        <DataArray type="Float32" Name="RotationalVelocity" NumberOfComponents="3" format="ascii">
                       1.26229                      -0.00000                      -0.11044
                       1.26229                      -0.00000                      -0.11044
                       1.26229                      -0.00000                      -0.11044
                       1.26229                      -0.00000                      -0.11044
                       1.26229                      -0.00000                      -0.11044
                       1.26229                      -0.00000                      -0.11044
                       1.26229                      -0.00000                      -0.11044
                       1.26229                      -0.00000                      -0.11044
                       1.26229                      -0.00000                      -0.11044
                       1.26229                      -0.00000                      -0.11044
                       1.26229                      -0.00000                      -0.11044
                       1.26229                      -0.00000                      -0.11044
                       1.26229                      -0.00000                      -0.11044
                       1.26229                      -0.00000                      -0.11044
                       1.26229                      -0.00000                      -0.11044
                       1.26229                      -0.00000                      -0.11044
                       1.26229                      -0.00000                      -0.11044
                       1.26229                      -0.00000                      -0.11044
                       1.26229                      -0.00000                      -0.11044
                       1.26229                      -0.00000                      -0.11044
                       1.26229                      -0.00000                      -0.11044
                       1.26229                      -0.00000                      -0.11044
                       1.26229                      -0.00000                      -0.11044
                       1.26229                      -0.00000                      -0.11044
                       1.26229                      -0.00000                      -0.11044
                       1.26229                      -0.00000                      -0.11044
                       1.26229                      -0.00000                      -0.11044
                       1.26229                      -0.00000                      -0.11044
                       1.26229                      -0.00000                      -0.11044
                       1.26229                      -0.00000                      -0.11044
                       1.26229                      -0.00000                      -0.11044
                       1.26229                      -0.00000                      -0.11044
                       1.26229                      -0.00000                      -0.11044
                       1.26229                      -0.00000                      -0.11044
                       1.26229                      -0.00000                      -0.11044
                       1.26229                      -0.00000                      -0.11044
                       1.26229                      -0.00000                      -0.11044
                       1.26229                      -0.00000                      -0.11044
                       1.26229                      -0.00000                      -0.11044
                       1.26229                      -0.00000                      -0.11044
                       1.26229                      -0.00000                      -0.11044
                       1.26229                      -0.00000                      -0.11044
                       1.26229                      -0.00000                      -0.11044
                       1.26229                      -0.00000                      -0.11044
                       1.26229                      -0.00000                      -0.11044
                       1.26229                      -0.00000                      -0.11044
                       1.26229                      -0.00000                      -0.11044
                       1.26229                      -0.00000                      -0.11044
                       1.26229                      -0.00000                      -0.11044
        </DataArray>
        <DataArray type="Float32" Name="TranslationalAcceleration" NumberOfComponents="3" format="ascii">
                       0.00000                       0.00000                       0.00000
                      -0.23765                       0.00000                      -2.71630
                      -0.37745                       0.00000                      -4.31427
                      -0.51726                       0.00000                      -5.91227
                      -0.65706                       0.00001                      -7.51029
                      -0.79687                       0.00001                      -9.10832
                      -0.93669                       0.00003                     -10.70637
                      -1.07650                       0.00005                     -12.30444
                      -1.21631                       0.00009                     -13.90253
                      -1.35630                       0.00014                     -15.50260
                      -1.49595                       0.00020                     -17.09875
                      -1.63577                       0.00028                     -18.69689
                      -1.77559                       0.00039                     -20.29505
                      -1.91541                       0.00051                     -21.89323
                      -2.05541                       0.00066                     -23.49339
                      -2.19506                       0.00083                     -25.08964
                      -2.33489                       0.00102                     -26.68787
                      -2.47472                       0.00125                     -28.28613
                      -2.75455                       0.00178                     -31.48467
                      -3.03414                       0.00244                     -34.68034
                      -3.31382                       0.00323                     -37.87710
                      -3.59350                       0.00415                     -41.07394
                      -3.87320                       0.00521                     -44.27089
                      -4.15299                       0.00642                     -47.46893
                      -4.43262                       0.00776                     -50.66510
                      -4.71235                       0.00925                     -53.86236
                      -4.99208                       0.01087                     -57.05973
                      -5.27182                       0.01263                     -60.25720
                      -5.55166                       0.01452                     -63.45576
                      -5.83133                       0.01653                     -66.65245
                      -6.11110                       0.01865                     -69.85021
                      -6.39088                       0.02088                     -73.04805
                      -6.67066                       0.02320                     -76.24596
                      -6.95061                       0.02560                     -79.44588
                      -7.23023                       0.02805                     -82.64190
                      -7.51002                       0.03056                     -85.83990
                      -7.78980                       0.03309                     -89.03788
                      -7.92970                       0.03437                     -90.63685
                      -8.06959                       0.03564                     -92.23581
                      -8.20948                       0.03691                     -93.83475
                      -8.27942                       0.03754                     -94.63421
                      -8.34954                       0.03817                     -95.43563
                      -8.41931                       0.03880                     -96.23311
                      -8.48925                       0.03942                     -97.03255
                      -8.55919                       0.04005                     -97.83198
                      -8.62913                       0.04066                     -98.63140
                      -8.69907                       0.04128                     -99.43081
                      -8.76901                       0.04189                    -100.23021
                      -8.81099                       0.04226                    -100.71005
        </DataArray>
        <DataArray type="Float32" Name="RotationalAcceleration" NumberOfComponents="3" format="ascii">
                       0.00000                       0.00000                       0.00000
                       0.00000                       0.00000                       0.00000
                       0.00000                       0.00000                       0.00000
                       0.00000                       0.00000                       0.00000
                       0.00000                       0.00000                       0.00000
                       0.00000                       0.00000                       0.00000
                       0.00000                       0.00000                       0.00000
                       0.00000                       0.00000                       0.00000
                       0.00000                       0.00000                       0.00000
                       0.00000                       0.00000                       0.00000
                       0.00000                       0.00000                       0.00000
                       0.00000                       0.00000                       0.00000
                       0.00000                       0.00000                       0.00000
                       0.00000                       0.00000                       0.00000
                       0.00000                       0.00000                       0.00000
                       0.00000                       0.00000                       0.00000
                       0.00000                       0.00000                       0.00000
                       0.00000                       0.00000                       0.00000
                       0.00000                       0.00000                       0.00000
                       0.00000                       0.00000                       0.00000
                       0.00000                       0.00000                       0.00000
                       0.00000                       0.00000                       0.00000
                       0.00000                       0.00000                       0.00000
                       0.00000                       0.00000                       0.00000
                       0.00000                       0.00000                       0.00000
                       0.00000                       0.00000                       0.00000
                       0.00000                       0.00000                       0.00000
                       0.00000                       0.00000                       0.00000
                       0.00000                       0.00000                       0.00000
                       0.00000                       0.00000                       0.00000
                       0.00000                       0.00000                       0.00000
                       0.00000                       0.00000                       0.00000
                       0.00000                       0.00000                       0.00000
                       0.00000                       0.00000                       0.00000
                       0.00000                       0.00000                       0.00000
                       0.00000                       0.00000                       0.00000
                       0.00000                       0.00000                       0.00000
                       0.00000                       0.00000                       0.00000
                       0.00000                       0.00000                       0.00000
                       0.00000                       0.00000                       0.00000
                       0.00000                       0.00000                       0.00000
                       0.00000                       0.00000                       0.00000
                       0.00000                       0.00000                       0.00000
                       0.00000                       0.00000                       0.00000
                       0.00000                       0.00000                       0.00000
                       0.00000                       0.00000                       0.00000
                       0.00000                       0.00000                       0.00000
                       0.00000                       0.00000                       0.00000
                       0.00000                       0.00000                       0.00000
        </DataArray>
        <DataArray type="Float32" Name="OrientationX" NumberOfComponents="3" format="ascii">
                       0.97222                      -0.23019                      -0.04245
                       0.97206                      -0.23085                      -0.04245
                       0.97142                      -0.23354                      -0.04246
                       0.97102                      -0.23521                      -0.04249
                       0.97083                      -0.23595                      -0.04255
                       0.97086                      -0.23584                      -0.04262
                       0.97106                      -0.23497                      -0.04271
                       0.97144                      -0.23341                      -0.04282
                       0.97195                      -0.23122                      -0.04295
                       0.97259                      -0.22849                      -0.04309
                       0.97334                      -0.22526                      -0.04325
                       0.97417                      -0.22160                      -0.04341
                       0.97507                      -0.21755                      -0.04359
                       0.97603                      -0.21317                      -0.04378
                       0.97703                      -0.20850                      -0.04398
                       0.97806                      -0.20360                      -0.04418
                       0.97910                      -0.19849                      -0.04440
                       0.98014                      -0.19321                      -0.04462
                       0.98221                      -0.18227                      -0.04509
                       0.98421                      -0.17104                      -0.04557
                       0.98609                      -0.15968                      -0.04608
                       0.98783                      -0.14836                      -0.04661
                       0.98942                      -0.13720                      -0.04715
                       0.99085                      -0.12628                      -0.04771
                       0.99211                      -0.11566                      -0.04829
                       0.99323                      -0.10538                      -0.04887
                       0.99420                      -0.09546                      -0.04947
                       0.99504                      -0.08590                      -0.05007
                       0.99577                      -0.07670                      -0.05068
                       0.99638                      -0.06785                      -0.05130
                       0.99689                      -0.05934                      -0.05191
                       0.99731                      -0.05116                      -0.05252
                       0.99765                      -0.04332                      -0.05311
                       0.99791                      -0.03583                      -0.05369
                       0.99812                      -0.02872                      -0.05423
                       0.99826                      -0.02204                      -0.05474
                       0.99835                      -0.01588                      -0.05520
                       0.99838                      -0.01302                      -0.05541
                       0.99840                      -0.01034                      -0.05561
                       0.99841                      -0.00784                      -0.05578
                       0.99842                      -0.00667                      -0.05586
                       0.99842                      -0.00556                      -0.05593
                       0.99842                      -0.00451                      -0.05600
                       0.99842                      -0.00352                      -0.05607
                       0.99842                      -0.00259                      -0.05612
                       0.99842                      -0.00174                      -0.05617
                       0.99842                      -0.00095                      -0.05622
                       0.99842                      -0.00025                      -0.05626
                       0.99842                       0.00014                      -0.05627
        </DataArray>
        <DataArray type="Float32" Name="OrientationY" NumberOfComponents="3" format="ascii">
                       0.22997                       0.97315                      -0.01004
                       0.23063                       0.97299                      -0.01007
                       0.23332                       0.97235                      -0.01020
                       0.23498                       0.97194                      -0.01028
                       0.23572                       0.97177                      -0.01033
                       0.23561                       0.97179                      -0.01034
                       0.23474                       0.97200                      -0.01031
                       0.23318                       0.97238                      -0.01026
                       0.23100                       0.97290                      -0.01018
                       0.22826                       0.97355                      -0.01008
                       0.22504                       0.97430                      -0.00995
                       0.22138                       0.97514                      -0.00981
                       0.21734                       0.97605                      -0.00964
                       0.21296                       0.97701                      -0.00947
                       0.20830                       0.97802                      -0.00928
                       0.20340                       0.97905                      -0.00907
                       0.19829                       0.98010                      -0.00886
                       0.19302                       0.98116                      -0.00864
                       0.18209                       0.98325                      -0.00817
                       0.17086                       0.98526                      -0.00768
                       0.15952                       0.98717                      -0.00719
                       0.14821                       0.98893                      -0.00668
                       0.13706                       0.99054                      -0.00618
                       0.12615                       0.99199                      -0.00567
                       0.11554                       0.99329                      -0.00518
                       0.10528                       0.99443                      -0.00469
                       0.09536                       0.99543                      -0.00421
                       0.08582                       0.99630                      -0.00375
                       0.07663                       0.99705                      -0.00329
                       0.06779                       0.99770                      -0.00284
                       0.05929                       0.99824                      -0.00241
                       0.05113                       0.99869                      -0.00198
                       0.04330                       0.99906                      -0.00157
                       0.03581                       0.99936                      -0.00117
                       0.02872                       0.99959                      -0.00079
                       0.02205                       0.99976                      -0.00042
                       0.01590                       0.99987                      -0.00009
                       0.01305                       0.99991                       0.00007
                       0.01036                       0.99995                       0.00022
                       0.00787                       0.99997                       0.00036
                       0.00671                       0.99998                       0.00042
                       0.00559                       0.99998                       0.00048
                       0.00454                       0.99999                       0.00054
                       0.00355                       0.99999                       0.00059
                       0.00263                       1.00000                       0.00064
                       0.00178                       1.00000                       0.00069
                       0.00100                       1.00000                       0.00073
                       0.00029                       1.00000                       0.00077
                      -0.00009                       1.00000                       0.00079
        </DataArray>
        <DataArray type="Float32" Name="OrientationZ" NumberOfComponents="3" format="ascii">
                       0.04362                       0.00000                       0.99905
                       0.04363                       0.00000                       0.99905
                       0.04367                       0.00000                       0.99905
                       0.04372                      -0.00000                       0.99904
                       0.04378                      -0.00000                       0.99904
                       0.04386                      -0.00001                       0.99904
                       0.04394                      -0.00001                       0.99903
                       0.04404                      -0.00002                       0.99903
                       0.04414                      -0.00003                       0.99903
                       0.04425                      -0.00004                       0.99902
                       0.04438                      -0.00005                       0.99901
                       0.04451                      -0.00006                       0.99901
                       0.04464                      -0.00007                       0.99900
                       0.04479                      -0.00008                       0.99900
                       0.04494                      -0.00010                       0.99899
                       0.04511                      -0.00011                       0.99898
                       0.04527                      -0.00013                       0.99897
                       0.04545                      -0.00015                       0.99897
                       0.04582                      -0.00018                       0.99895
                       0.04622                      -0.00022                       0.99893
                       0.04664                      -0.00027                       0.99891
                       0.04709                      -0.00031                       0.99889
                       0.04756                      -0.00035                       0.99887
                       0.04805                      -0.00040                       0.99884
                       0.04856                      -0.00044                       0.99882
                       0.04909                      -0.00049                       0.99879
                       0.04964                      -0.00053                       0.99877
                       0.05021                      -0.00057                       0.99874
                       0.05079                      -0.00061                       0.99871
                       0.05137                      -0.00065                       0.99868
                       0.05196                      -0.00068                       0.99865
                       0.05255                      -0.00071                       0.99862
                       0.05313                      -0.00073                       0.99859
                       0.05369                      -0.00075                       0.99856
                       0.05423                      -0.00077                       0.99853
                       0.05474                      -0.00078                       0.99850
                       0.05520                      -0.00079                       0.99848
                       0.05541                      -0.00079                       0.99846
                       0.05560                      -0.00079                       0.99845
                       0.05578                      -0.00079                       0.99844
                       0.05586                      -0.00079                       0.99844
                       0.05593                      -0.00079                       0.99843
                       0.05600                      -0.00079                       0.99843
                       0.05606                      -0.00079                       0.99843
                       0.05612                      -0.00079                       0.99842
                       0.05617                      -0.00079                       0.99842
                       0.05622                      -0.00079                       0.99842
                       0.05626                      -0.00078                       0.99842
                       0.05627                      -0.00078                       0.99842
        </DataArray>
      </PointData>
      <Lines>
        <DataArray type="Int32" Name="connectivity" format="ascii">
      0      1
      1      2
      2      3
      3      4
      4      5
      5      6
      6      7
      7      8
      8      9
      9     10
     10     11
     11     12
     12     13
     13     14
     14     15
     15     16
     16     17
     17     18
     18     19
     19     20
     20     21
     21     22
     22     23
     23     24
     24     25
     25     26
     26     27
     27     28
     28     29
     29     30
     30     31
     31     32
     32     33
     33     34
     34     35
     35     36
     36     37
     37     38
     38     39
     39     40
     40     41
     41     42
     42     43
     43     44
     44     45
     45     46
     46     47
     47     48
        </DataArray>
        <DataArray type="Int32" Name="offsets" format="ascii">
      2
      4
      6
      8
     10
     12
     14
     16
     18
     20
     22
     24
     26
     28
     30
     32
     34
     36
     38
     40
     42
     44
     46
     48
     50
     52
     54
     56
     58
     60
     62
     64
     66
     68
     70
     72
     74
     76
     78
     80
     82
     84
     86
     88
     90
     92
     94
     96
        </DataArray>
      </Lines>
    </Piece>
  </PolyData>
</VTKFile>
