<?xml version="1.0"?>
<VTKFile type="PolyData" version="0.1" byte_order="LittleEndian">
  <PolyData>
    <Piece NumberOfPoints="     49" NumberOfVerts="  0" NumberOfLines="     48"
           NumberOfStrips="  0" NumberOfPolys="      0">
      <Points>
        <DataArray type="Float32" NumberOfComponents="3" format="ascii">
                      -5.13049                       1.29780                      89.25927
                      -5.14787                       1.47073                      89.16055
                      -5.23483                       2.33589                      88.66654
                      -5.32172                       3.20097                      88.17238
                      -5.40855                       4.06597                      87.67804
                      -5.49531                       4.93089                      87.18353
                      -5.58199                       5.79573                      86.68883
                      -5.66860                       6.66047                      86.19393
                      -5.75512                       7.52511                      85.69884
                      -5.84165                       8.39072                      85.20293
                      -5.92788                       9.25410                      84.70802
                      -6.01411                      10.11844                      84.21230
                      -6.10024                      10.98267                      83.71635
                      -6.18625                      11.84679                      83.22019
                      -6.27224                      12.71187                      82.72319
                      -6.35790                      13.57471                      82.22719
                      -6.44353                      14.43851                      81.73036
                      -6.52901                      15.30221                      81.23331
                      -6.69964                      17.03035                      80.23793
                      -6.86946                      18.75649                      79.24261
                      -7.03863                      20.48277                      78.24614
                      -7.20703                      22.20870                      77.24887
                      -7.37463                      23.93429                      76.25083
                      -7.54140                      25.66011                      75.25176
                      -7.70715                      27.38460                      74.25263
                      -7.87199                      29.10938                      73.25256
                      -8.03582                      30.83396                      72.25191
                      -8.19860                      32.55835                      71.25073
                      -8.36036                      34.28313                      70.24878
                      -8.52090                      36.00673                      69.24701
                      -8.68038                      37.73075                      68.24455
                      -8.83871                      39.45469                      67.24175
                      -8.99591                      41.17856                      66.23865
                      -9.15206                      42.90342                      65.23466
                      -9.30691                      44.62609                      64.23165
                      -9.46075                      46.34973                      63.22779
                      -9.61353                      48.07328                      62.22370
                      -9.68954                      48.93501                      61.72157
                      -9.76531                      49.79670                      61.21937
                      -9.84083                      50.65834                      60.71711
                      -9.87851                      51.08915                      60.46595
                      -9.91623                      51.52100                      60.21416
                      -9.95370                      51.95072                      59.96359
                      -9.99121                      52.38148                      59.71238
                     -10.02867                      52.81222                      59.46115
                     -10.06608                      53.24295                      59.20991
                     -10.10344                      53.67366                      58.95864
                     -10.14076                      54.10436                      58.70735
                     -10.16313                      54.36287                      58.55650
        </DataArray>
      </Points>
      <PointData>
        <DataArray type="Float32" Name="Force" NumberOfComponents="3" format="ascii">
                       0.00000                       0.00000                       0.00000
                       0.00000                       0.00000                       0.00000
                       0.00000                       0.00000                       0.00000
                       0.00000                       0.00000                       0.00000
                       0.00000                       0.00000                       0.00000
                       0.00000                       0.00000                       0.00000
                       0.00000                       0.00000                       0.00000
                       0.00000                       0.00000                       0.00000
                       0.00000                       0.00000                       0.00000
                       0.00000                       0.00000                       0.00000
                       0.00000                       0.00000                       0.00000
                       0.00000                       0.00000                       0.00000
                       0.00000                       0.00000                       0.00000
                       0.00000                       0.00000                       0.00000
                       0.00000                       0.00000                       0.00000
                       0.00000                       0.00000                       0.00000
                       0.00000                       0.00000                       0.00000
                       0.00000                       0.00000                       0.00000
                       0.00000                       0.00000                       0.00000
                       0.00000                       0.00000                       0.00000
                       0.00000                       0.00000                       0.00000
                       0.00000                       0.00000                       0.00000
                       0.00000                       0.00000                       0.00000
                       0.00000                       0.00000                       0.00000
                       0.00000                       0.00000                       0.00000
                       0.00000                       0.00000                       0.00000
                       0.00000                       0.00000                       0.00000
                       0.00000                       0.00000                       0.00000
                       0.00000                       0.00000                       0.00000
                       0.00000                       0.00000                       0.00000
                       0.00000                       0.00000                       0.00000
                       0.00000                       0.00000                       0.00000
                       0.00000                       0.00000                       0.00000
                       0.00000                       0.00000                       0.00000
                       0.00000                       0.00000                       0.00000
                       0.00000                       0.00000                       0.00000
                       0.00000                       0.00000                       0.00000
                       0.00000                       0.00000                       0.00000
                       0.00000                       0.00000                       0.00000
                       0.00000                       0.00000                       0.00000
                       0.00000                       0.00000                       0.00000
                       0.00000                       0.00000                       0.00000
                       0.00000                       0.00000                       0.00000
                       0.00000                       0.00000                       0.00000
                       0.00000                       0.00000                       0.00000
                       0.00000                       0.00000                       0.00000
                       0.00000                       0.00000                       0.00000
                       0.00000                       0.00000                       0.00000
                       0.00000                       0.00000                       0.00000
        </DataArray>
        <DataArray type="Float32" Name="Moment" NumberOfComponents="3" format="ascii">
                       0.00000                       0.00000                       0.00000
                       0.00000                       0.00000                       0.00000
                       0.00000                       0.00000                       0.00000
                       0.00000                       0.00000                       0.00000
                       0.00000                       0.00000                       0.00000
                       0.00000                       0.00000                       0.00000
                       0.00000                       0.00000                       0.00000
                       0.00000                       0.00000                       0.00000
                       0.00000                       0.00000                       0.00000
                       0.00000                       0.00000                       0.00000
                       0.00000                       0.00000                       0.00000
                       0.00000                       0.00000                       0.00000
                       0.00000                       0.00000                       0.00000
                       0.00000                       0.00000                       0.00000
                       0.00000                       0.00000                       0.00000
                       0.00000                       0.00000                       0.00000
                       0.00000                       0.00000                       0.00000
                       0.00000                       0.00000                       0.00000
                       0.00000                       0.00000                       0.00000
                       0.00000                       0.00000                       0.00000
                       0.00000                       0.00000                       0.00000
                       0.00000                       0.00000                       0.00000
                       0.00000                       0.00000                       0.00000
                       0.00000                       0.00000                       0.00000
                       0.00000                       0.00000                       0.00000
                       0.00000                       0.00000                       0.00000
                       0.00000                       0.00000                       0.00000
                       0.00000                       0.00000                       0.00000
                       0.00000                       0.00000                       0.00000
                       0.00000                       0.00000                       0.00000
                       0.00000                       0.00000                       0.00000
                       0.00000                       0.00000                       0.00000
                       0.00000                       0.00000                       0.00000
                       0.00000                       0.00000                       0.00000
                       0.00000                       0.00000                       0.00000
                       0.00000                       0.00000                       0.00000
                       0.00000                       0.00000                       0.00000
                       0.00000                       0.00000                       0.00000
                       0.00000                       0.00000                       0.00000
                       0.00000                       0.00000                       0.00000
                       0.00000                       0.00000                       0.00000
                       0.00000                       0.00000                       0.00000
                       0.00000                       0.00000                       0.00000
                       0.00000                       0.00000                       0.00000
                       0.00000                       0.00000                       0.00000
                       0.00000                       0.00000                       0.00000
                       0.00000                       0.00000                       0.00000
                       0.00000                       0.00000                       0.00000
                       0.00000                       0.00000                       0.00000
        </DataArray>
        <DataArray type="Float32" Name="TranslationalVelocity" NumberOfComponents="3" format="ascii">
                       0.14332                       0.94943                       1.63820
                       0.16242                       1.07596                       1.85649
                       0.25797                       1.70915                       2.94856
                       0.35350                       2.34252                       4.04054
                       0.44903                       2.97610                       5.13243
                       0.54455                       3.60990                       6.22421
                       0.64006                       4.24393                       7.31587
                       0.73555                       4.87819                       8.40743
                       0.83104                       5.51270                       9.49886
                       0.92664                       6.14824                      10.59150
                       1.02198                       6.78247                      11.68133
                       1.11744                       7.41774                      12.77237
                       1.21288                       8.05328                      13.86328
                       1.30831                       8.68908                      14.95405
                       1.40385                       9.32593                      16.04603
                       1.49913                       9.96149                      17.13519
                       1.59453                      10.59809                      18.22555
                       1.68991                      11.23495                      19.31578
                       1.88076                      12.51024                      21.49719
                       2.07139                      13.78538                      23.67607
                       2.26203                      15.06189                      25.85514
                       2.45264                      16.33933                      28.03376
                       2.64320                      17.61765                      30.21195
                       2.83380                      18.89718                      32.39044
                       3.02424                      20.17668                      34.56724
                       3.21472                      21.45726                      36.74441
                       3.40517                      22.73846                      38.92131
                       3.59561                      24.02021                      41.09800
                       3.78609                      25.30283                      43.27516
                       3.97643                      26.58508                      45.45083
                       4.16683                      27.86808                      47.62705
                       4.35721                      29.15138                      49.80316
                       4.54759                      30.43494                      51.97917
                       4.73807                      31.71951                      54.15644
                       4.92832                      33.00270                      56.33094
                       5.11867                      34.28685                      58.50668
                       5.30901                      35.57117                      60.68229
                       5.40418                      36.21341                      61.77004
                       5.49934                      36.85569                      62.85774
                       5.59450                      37.49803                      63.94538
                       5.64207                      37.81922                      64.48918
                       5.68976                      38.14122                      65.03430
                       5.73722                      38.46165                      65.57673
                       5.78479                      38.78289                      66.12047
                       5.83236                      39.10415                      66.66420
                       5.87993                      39.42543                      67.20790
                       5.92750                      39.74673                      67.75159
                       5.97506                      40.06805                      68.29524
                       6.00361                      40.26093                      68.62156
        </DataArray>
        <DataArray type="Float32" Name="RotationalVelocity" NumberOfComponents="3" format="ascii">
                       1.26229                       0.00000                      -0.11044
                       1.26229                       0.00000                      -0.11044
                       1.26229                      -0.00000                      -0.11044
                       1.26229                       0.00000                      -0.11044
                       1.26229                       0.00000                      -0.11044
                       1.26229                       0.00000                      -0.11044
                       1.26229                       0.00000                      -0.11044
                       1.26229                      -0.00000                      -0.11044
                       1.26229                       0.00000                      -0.11044
                       1.26229                       0.00000                      -0.11044
                       1.26229                       0.00000                      -0.11044
                       1.26229                       0.00000                      -0.11044
                       1.26229                       0.00000                      -0.11044
                       1.26229                       0.00000                      -0.11044
                       1.26229                       0.00000                      -0.11044
                       1.26229                      -0.00000                      -0.11044
                       1.26229                      -0.00000                      -0.11044
                       1.26229                       0.00000                      -0.11044
                       1.26229                       0.00000                      -0.11044
                       1.26229                       0.00000                      -0.11044
                       1.26229                       0.00000                      -0.11044
                       1.26229                       0.00000                      -0.11044
                       1.26229                       0.00000                      -0.11044
                       1.26229                       0.00000                      -0.11044
                       1.26229                       0.00000                      -0.11044
                       1.26229                       0.00000                      -0.11044
                       1.26229                       0.00000                      -0.11044
                       1.26229                       0.00000                      -0.11044
                       1.26229                       0.00000                      -0.11044
                       1.26229                       0.00000                      -0.11044
                       1.26229                       0.00000                      -0.11044
                       1.26229                       0.00000                      -0.11044
                       1.26229                       0.00000                      -0.11044
                       1.26229                       0.00000                      -0.11044
                       1.26229                       0.00000                      -0.11044
                       1.26229                       0.00000                      -0.11044
                       1.26229                       0.00000                      -0.11044
                       1.26229                       0.00000                      -0.11044
                       1.26229                       0.00000                      -0.11044
                       1.26229                       0.00000                      -0.11044
                       1.26229                       0.00000                      -0.11044
                       1.26229                       0.00000                      -0.11044
                       1.26229                       0.00000                      -0.11044
                       1.26229                       0.00000                      -0.11044
                       1.26229                       0.00000                      -0.11044
                       1.26229                       0.00000                      -0.11044
                       1.26229                       0.00000                      -0.11044
                       1.26229                       0.00000                      -0.11044
                       1.26229                       0.00000                      -0.11044
        </DataArray>
        <DataArray type="Float32" Name="TranslationalAcceleration" NumberOfComponents="3" format="ascii">
                       0.00000                       0.00000                       0.00000
                       0.11882                      -2.36136                       1.35818
                       0.18875                      -3.75042                       2.15743
                       0.25870                      -5.13936                       2.95693
                       0.32867                      -6.52818                       3.75670
                       0.39866                      -7.91687                       4.55673
                       0.46868                      -9.30542                       5.35706
                       0.53873                     -10.69382                       6.15768
                       0.60880                     -12.08206                       6.95861
                       0.67899                     -13.47185                       7.76084
                       0.74903                     -14.85806                       8.56143
                       0.81918                     -16.24581                       9.36332
                       0.88937                     -17.63339                      10.16555
                       0.95959                     -19.02080                      10.96812
                       1.02992                     -20.40974                      11.77201
                       1.10010                     -21.79509                      12.57426
                       1.17041                     -23.18198                      13.37783
                       1.24074                     -24.56869                      14.18173
                       1.38158                     -27.34333                      15.79152
                       1.52240                     -30.11476                      17.40111
                       1.66337                     -32.88643                      19.01243
                       1.80445                     -35.65752                      20.62493
                       1.94562                     -38.42807                      22.23854
                       2.08693                     -41.19899                      23.85367
                       2.22823                     -43.96777                      25.46877
                       2.36965                     -46.73702                      27.08523
                       2.51114                     -49.50593                      28.70247
                       2.65269                     -52.27456                      30.32040
                       2.79434                     -55.04381                      31.93944
                       2.93595                     -57.81115                      33.55801
                       3.07763                     -60.57918                      35.17752
                       3.21936                     -63.34708                      36.79742
                       3.36111                     -66.11486                      38.41764
                       3.50297                     -68.88424                      40.03914
                       3.64468                     -71.65010                      41.65889
                       3.78650                     -74.41753                      43.27985
                       3.92833                     -77.18479                      44.90104
                       3.99926                     -78.56835                      45.71172
                       4.07019                     -79.95185                      46.52247
                       4.14113                     -81.33528                      47.33328
                       4.17660                     -82.02696                      47.73872
                       4.21216                     -82.72033                      48.14517
                       4.24754                     -83.41027                      48.54965
                       4.28302                     -84.10188                      48.95515
                       4.31850                     -84.79348                      49.36067
                       4.35398                     -85.48504                      49.76622
                       4.38946                     -86.17657                      50.17179
                       4.42495                     -86.86808                      50.57739
                       4.44625                     -87.28313                      50.82086
        </DataArray>
        <DataArray type="Float32" Name="RotationalAcceleration" NumberOfComponents="3" format="ascii">
                       0.00000                       0.00000                       0.00000
                       0.00000                       0.00000                       0.00000
                       0.00000                       0.00000                       0.00000
                       0.00000                       0.00000                       0.00000
                       0.00000                       0.00000                       0.00000
                       0.00000                       0.00000                       0.00000
                       0.00000                       0.00000                       0.00000
                       0.00000                       0.00000                       0.00000
                       0.00000                       0.00000                       0.00000
                       0.00000                       0.00000                       0.00000
                       0.00000                       0.00000                       0.00000
                       0.00000                       0.00000                       0.00000
                       0.00000                       0.00000                       0.00000
                       0.00000                       0.00000                       0.00000
                       0.00000                       0.00000                       0.00000
                       0.00000                       0.00000                       0.00000
                       0.00000                       0.00000                       0.00000
                       0.00000                       0.00000                       0.00000
                       0.00000                       0.00000                       0.00000
                       0.00000                       0.00000                       0.00000
                       0.00000                       0.00000                       0.00000
                       0.00000                       0.00000                       0.00000
                       0.00000                       0.00000                       0.00000
                       0.00000                       0.00000                       0.00000
                       0.00000                       0.00000                       0.00000
                       0.00000                       0.00000                       0.00000
                       0.00000                       0.00000                       0.00000
                       0.00000                       0.00000                       0.00000
                       0.00000                       0.00000                       0.00000
                       0.00000                       0.00000                       0.00000
                       0.00000                       0.00000                       0.00000
                       0.00000                       0.00000                       0.00000
                       0.00000                       0.00000                       0.00000
                       0.00000                       0.00000                       0.00000
                       0.00000                       0.00000                       0.00000
                       0.00000                       0.00000                       0.00000
                       0.00000                       0.00000                       0.00000
                       0.00000                       0.00000                       0.00000
                       0.00000                       0.00000                       0.00000
                       0.00000                       0.00000                       0.00000
                       0.00000                       0.00000                       0.00000
                       0.00000                       0.00000                       0.00000
                       0.00000                       0.00000                       0.00000
                       0.00000                       0.00000                       0.00000
                       0.00000                       0.00000                       0.00000
                       0.00000                       0.00000                       0.00000
                       0.00000                       0.00000                       0.00000
                       0.00000                       0.00000                       0.00000
                       0.00000                       0.00000                       0.00000
        </DataArray>
        <DataArray type="Float32" Name="OrientationX" NumberOfComponents="3" format="ascii">
                       0.98405                       0.15185                       0.09271
                       0.98394                       0.15218                       0.09331
                       0.98351                       0.15348                       0.09570
                       0.98323                       0.15428                       0.09720
                       0.98312                       0.15462                       0.09787
                       0.98314                       0.15453                       0.09779
                       0.98328                       0.15407                       0.09703
                       0.98354                       0.15326                       0.09567
                       0.98390                       0.15214                       0.09375
                       0.98434                       0.15074                       0.09135
                       0.98485                       0.14910                       0.08852
                       0.98542                       0.14723                       0.08530
                       0.98602                       0.14517                       0.08175
                       0.98666                       0.14293                       0.07791
                       0.98732                       0.14054                       0.07382
                       0.98798                       0.13803                       0.06953
                       0.98865                       0.13540                       0.06507
                       0.98931                       0.13269                       0.06046
                       0.99059                       0.12704                       0.05093
                       0.99177                       0.12120                       0.04117
                       0.99284                       0.11527                       0.03134
                       0.99377                       0.10931                       0.02158
                       0.99457                       0.10340                       0.01198
                       0.99523                       0.09757                       0.00262
                       0.99575                       0.09185                      -0.00644
                       0.99616                       0.08628                      -0.01518
                       0.99645                       0.08085                      -0.02357
                       0.99664                       0.07558                      -0.03163
                       0.99674                       0.07046                      -0.03936
                       0.99676                       0.06550                      -0.04675
                       0.99670                       0.06070                      -0.05384
                       0.99659                       0.05606                      -0.06063
                       0.99641                       0.05158                      -0.06711
                       0.99619                       0.04728                      -0.07330
                       0.99593                       0.04319                      -0.07915
                       0.99564                       0.03934                      -0.08463
                       0.99533                       0.03578                      -0.08968
                       0.99517                       0.03414                      -0.09202
                       0.99502                       0.03259                      -0.09422
                       0.99487                       0.03115                      -0.09626
                       0.99480                       0.03048                      -0.09722
                       0.99473                       0.02984                      -0.09813
                       0.99466                       0.02924                      -0.09899
                       0.99459                       0.02867                      -0.09981
                       0.99453                       0.02814                      -0.10056
                       0.99448                       0.02765                      -0.10126
                       0.99442                       0.02721                      -0.10191
                       0.99437                       0.02681                      -0.10248
                       0.99435                       0.02659                      -0.10280
        </DataArray>
        <DataArray type="Float32" Name="OrientationY" NumberOfComponents="3" format="ascii">
                       0.15520                      -0.47788                      -0.86461
                       0.15588                      -0.47779                      -0.86453
                       0.15861                      -0.47748                      -0.86421
                       0.16031                      -0.47735                      -0.86396
                       0.16107                      -0.47739                      -0.86381
                       0.16098                      -0.47757                      -0.86372
                       0.16011                      -0.47788                      -0.86371
                       0.15855                      -0.47832                      -0.86375
                       0.15636                      -0.47886                      -0.86385
                       0.15361                      -0.47950                      -0.86400
                       0.15037                      -0.48020                      -0.86417
                       0.14669                      -0.48098                      -0.86437
                       0.14262                      -0.48181                      -0.86459
                       0.13821                      -0.48268                      -0.86482
                       0.13352                      -0.48358                      -0.86506
                       0.12859                      -0.48450                      -0.86529
                       0.12345                      -0.48544                      -0.86551
                       0.11814                      -0.48638                      -0.86572
                       0.10715                      -0.48827                      -0.86609
                       0.09586                      -0.49011                      -0.86637
                       0.08446                      -0.49187                      -0.86656
                       0.07311                      -0.49354                      -0.86664
                       0.06191                      -0.49510                      -0.86663
                       0.05096                      -0.49654                      -0.86652
                       0.04032                      -0.49786                      -0.86632
                       0.03003                      -0.49906                      -0.86605
                       0.02010                      -0.50015                      -0.86571
                       0.01054                      -0.50113                      -0.86531
                       0.00134                      -0.50201                      -0.86486
                      -0.00750                      -0.50280                      -0.86437
                      -0.01600                      -0.50350                      -0.86385
                      -0.02416                      -0.50413                      -0.86329
                      -0.03198                      -0.50469                      -0.86271
                      -0.03946                      -0.50518                      -0.86211
                      -0.04654                      -0.50560                      -0.86151
                      -0.05318                      -0.50597                      -0.86091
                      -0.05932                      -0.50629                      -0.86032
                      -0.06216                      -0.50642                      -0.86004
                      -0.06482                      -0.50655                      -0.85977
                      -0.06730                      -0.50666                      -0.85952
                      -0.06846                      -0.50671                      -0.85939
                      -0.06957                      -0.50676                      -0.85928
                      -0.07061                      -0.50680                      -0.85917
                      -0.07160                      -0.50684                      -0.85906
                      -0.07251                      -0.50688                      -0.85896
                      -0.07336                      -0.50691                      -0.85887
                      -0.07414                      -0.50694                      -0.85878
                      -0.07483                      -0.50697                      -0.85871
                      -0.07521                      -0.50699                      -0.85867
        </DataArray>
        <DataArray type="Float32" Name="OrientationZ" NumberOfComponents="3" format="ascii">
                      -0.08699                       0.86520                      -0.49382
                      -0.08698                       0.86519                      -0.49384
                      -0.08694                       0.86513                      -0.49395
                      -0.08690                       0.86506                      -0.49408
                      -0.08684                       0.86498                      -0.49423
                      -0.08677                       0.86490                      -0.49439
                      -0.08670                       0.86481                      -0.49456
                      -0.08662                       0.86471                      -0.49475
                      -0.08653                       0.86461                      -0.49494
                      -0.08644                       0.86450                      -0.49514
                      -0.08634                       0.86439                      -0.49535
                      -0.08623                       0.86428                      -0.49556
                      -0.08612                       0.86417                      -0.49578
                      -0.08600                       0.86406                      -0.49599
                      -0.08588                       0.86394                      -0.49621
                      -0.08575                       0.86383                      -0.49643
                      -0.08561                       0.86372                      -0.49665
                      -0.08546                       0.86361                      -0.49686
                      -0.08516                       0.86340                      -0.49729
                      -0.08483                       0.86319                      -0.49769
                      -0.08447                       0.86300                      -0.49809
                      -0.08409                       0.86283                      -0.49846
                      -0.08368                       0.86266                      -0.49881
                      -0.08324                       0.86251                      -0.49914
                      -0.08278                       0.86238                      -0.49945
                      -0.08229                       0.86226                      -0.49973
                      -0.08178                       0.86216                      -0.49999
                      -0.08125                       0.86207                      -0.50024
                      -0.08070                       0.86199                      -0.50047
                      -0.08013                       0.86192                      -0.50068
                      -0.07955                       0.86186                      -0.50087
                      -0.07896                       0.86181                      -0.50105
                      -0.07837                       0.86176                      -0.50122
                      -0.07779                       0.86172                      -0.50138
                      -0.07722                       0.86168                      -0.50153
                      -0.07669                       0.86165                      -0.50167
                      -0.07619                       0.86162                      -0.50180
                      -0.07596                       0.86161                      -0.50186
                      -0.07575                       0.86160                      -0.50191
                      -0.07555                       0.86158                      -0.50196
                      -0.07546                       0.86158                      -0.50199
                      -0.07537                       0.86157                      -0.50201
                      -0.07529                       0.86157                      -0.50203
                      -0.07522                       0.86156                      -0.50205
                      -0.07515                       0.86156                      -0.50207
                      -0.07508                       0.86155                      -0.50208
                      -0.07503                       0.86155                      -0.50210
                      -0.07498                       0.86155                      -0.50211
                      -0.07495                       0.86154                      -0.50212
        </DataArray>
      </PointData>
      <Lines>
        <DataArray type="Int32" Name="connectivity" format="ascii">
      0      1
      1      2
      2      3
      3      4
      4      5
      5      6
      6      7
      7      8
      8      9
      9     10
     10     11
     11     12
     12     13
     13     14
     14     15
     15     16
     16     17
     17     18
     18     19
     19     20
     20     21
     21     22
     22     23
     23     24
     24     25
     25     26
     26     27
     27     28
     28     29
     29     30
     30     31
     31     32
     32     33
     33     34
     34     35
     35     36
     36     37
     37     38
     38     39
     39     40
     40     41
     41     42
     42     43
     43     44
     44     45
     45     46
     46     47
     47     48
        </DataArray>
        <DataArray type="Int32" Name="offsets" format="ascii">
      2
      4
      6
      8
     10
     12
     14
     16
     18
     20
     22
     24
     26
     28
     30
     32
     34
     36
     38
     40
     42
     44
     46
     48
     50
     52
     54
     56
     58
     60
     62
     64
     66
     68
     70
     72
     74
     76
     78
     80
     82
     84
     86
     88
     90
     92
     94
     96
        </DataArray>
      </Lines>
    </Piece>
  </PolyData>
</VTKFile>
