<?xml version="1.0"?>
<VTKFile type="PolyData" version="0.1" byte_order="LittleEndian">
  <PolyData>
    <Piece NumberOfPoints="     22" NumberOfVerts="  0" NumberOfLines="     21"
           NumberOfStrips="  0" NumberOfPolys="      0">
      <Points>
        <DataArray type="Float32" NumberOfComponents="3" format="ascii">
                       0.00000                       0.00000                       2.19000
                       0.00000                       0.00000                       6.57000
                       0.00000                       0.00000                      10.95000
                       0.00000                       0.00000                      15.33000
                       0.00000                       0.00000                      19.71000
                       0.00000                       0.00000                      24.09000
                       0.00000                       0.00000                      28.47000
                       0.00000                       0.00000                      32.85000
                       0.00000                       0.00000                      37.23000
                       0.00000                       0.00000                      41.61000
                       0.00000                       0.00000                      45.99000
                       0.00000                       0.00000                      50.37000
                       0.00000                       0.00000                      54.75000
                       0.00000                       0.00000                      59.13000
                       0.00000                       0.00000                      63.51000
                       0.00000                       0.00000                      67.89000
                       0.00000                       0.00000                      72.27000
                       0.00000                       0.00000                      76.65000
                       0.00000                       0.00000                      81.03000
                       0.00000                       0.00000                      85.41000
                       0.00000                       0.00000                      87.60000
                       0.00000                       0.00000                       0.00000
        </DataArray>
      </Points>
      <PointData>
        <DataArray type="Float32" Name="TranslationalVelocity" NumberOfComponents="3" format="ascii">
                       0.00000                      -0.00000                       0.00000
                       0.00000                      -0.00000                       0.00000
                       0.00000                      -0.00000                       0.00000
                       0.00000                      -0.00000                       0.00000
                       0.00000                      -0.00000                       0.00000
                       0.00000                      -0.00000                       0.00000
                       0.00000                      -0.00000                       0.00000
                       0.00000                      -0.00000                       0.00000
                       0.00000                      -0.00000                       0.00000
                       0.00000                      -0.00000                       0.00000
                       0.00000                      -0.00000                       0.00000
                       0.00000                      -0.00000                       0.00000
                       0.00000                      -0.00000                       0.00000
                       0.00000                      -0.00000                       0.00000
                       0.00000                      -0.00000                       0.00000
                       0.00000                      -0.00000                       0.00000
                       0.00000                      -0.00000                       0.00000
                       0.00000                      -0.00000                       0.00000
                       0.00000                      -0.00000                       0.00000
                       0.00000                      -0.00000                       0.00000
                       0.00000                      -0.00000                       0.00000
                       0.00000                      -0.00000                       0.00000
        </DataArray>
        <DataArray type="Float32" Name="RotationalVelocity" NumberOfComponents="3" format="ascii">
                       0.00000                      -0.00000                       0.00000
                       0.00000                      -0.00000                       0.00000
                       0.00000                      -0.00000                       0.00000
                       0.00000                      -0.00000                       0.00000
                       0.00000                      -0.00000                       0.00000
                       0.00000                      -0.00000                       0.00000
                       0.00000                      -0.00000                       0.00000
                       0.00000                      -0.00000                       0.00000
                       0.00000                      -0.00000                       0.00000
                       0.00000                      -0.00000                       0.00000
                       0.00000                      -0.00000                       0.00000
                       0.00000                      -0.00000                       0.00000
                       0.00000                      -0.00000                       0.00000
                       0.00000                      -0.00000                       0.00000
                       0.00000                      -0.00000                       0.00000
                       0.00000                      -0.00000                       0.00000
                       0.00000                      -0.00000                       0.00000
                       0.00000                      -0.00000                       0.00000
                       0.00000                      -0.00000                       0.00000
                       0.00000                      -0.00000                       0.00000
                       0.00000                      -0.00000                       0.00000
                       0.00000                      -0.00000                       0.00000
        </DataArray>
        <DataArray type="Float32" Name="TranslationalAcceleration" NumberOfComponents="3" format="ascii">
                      -0.00210                      -0.00000                       0.00000
                      -0.01932                      -0.00000                       0.00000
                      -0.05400                      -0.00000                       0.00000
                      -0.10489                      -0.00000                       0.00000
                      -0.16945                      -0.00000                       0.00000
                      -0.24412                      -0.00000                       0.00000
                      -0.32459                      -0.00000                       0.00000
                      -0.40602                      -0.00000                       0.00000
                      -0.48328                      -0.00000                       0.00000
                      -0.55121                      -0.00000                       0.00000
                      -0.60481                      -0.00000                       0.00000
                      -0.63946                      -0.00000                       0.00000
                      -0.65113                      -0.00000                       0.00000
                      -0.63655                      -0.00000                       0.00000
                      -0.59342                      -0.00000                       0.00000
                      -0.52055                      -0.00000                       0.00000
                      -0.41807                      -0.00000                       0.00000
                      -0.28752                      -0.00000                       0.00000
                      -0.13206                      -0.00000                       0.00000
                       0.04341                      -0.00000                       0.00000
                       0.13661                      -0.00000                       0.00000
                       0.00000                      -0.00000                       0.00000
        </DataArray>
        <DataArray type="Float32" Name="RotationalAcceleration" NumberOfComponents="3" format="ascii">
                       0.00000                      -0.00193                       0.00000
                       0.00000                      -0.00595                       0.00000
                       0.00000                      -0.00984                       0.00000
                       0.00000                      -0.01330                       0.00000
                       0.00000                      -0.01605                       0.00000
                       0.00000                      -0.01789                       0.00000
                       0.00000                      -0.01867                       0.00000
                       0.00000                      -0.01831                       0.00000
                       0.00000                      -0.01677                       0.00000
                       0.00000                      -0.01406                       0.00000
                       0.00000                      -0.01024                       0.00000
                       0.00000                      -0.00543                       0.00000
                       0.00000                       0.00022                       0.00000
                       0.00000                       0.00652                       0.00000
                       0.00000                       0.01322                       0.00000
                       0.00000                       0.02005                       0.00000
                       0.00000                       0.02669                       0.00000
                       0.00000                       0.03280                       0.00000
                       0.00000                       0.03800                       0.00000
                       0.00000                       0.04187                       0.00000
                       0.00000                       0.04318                       0.00000
                       0.00000                      -0.00000                       0.00000
        </DataArray>
        <DataArray type="Float32" Name="OrientationX" NumberOfComponents="3" format="ascii">
                       1.00000                      -0.00000                       0.00000
                       1.00000                      -0.00000                       0.00000
                       1.00000                      -0.00000                       0.00000
                       1.00000                      -0.00000                       0.00000
                       1.00000                      -0.00000                       0.00000
                       1.00000                      -0.00000                       0.00000
                       1.00000                      -0.00000                       0.00000
                       1.00000                      -0.00000                       0.00000
                       1.00000                      -0.00000                       0.00000
                       1.00000                      -0.00000                       0.00000
                       1.00000                      -0.00000                       0.00000
                       1.00000                      -0.00000                       0.00000
                       1.00000                      -0.00000                       0.00000
                       1.00000                      -0.00000                       0.00000
                       1.00000                      -0.00000                       0.00000
                       1.00000                      -0.00000                       0.00000
                       1.00000                      -0.00000                       0.00000
                       1.00000                      -0.00000                       0.00000
                       1.00000                      -0.00000                       0.00000
                       1.00000                      -0.00000                       0.00000
                       1.00000                      -0.00000                       0.00000
                       1.00000                      -0.00000                       0.00000
        </DataArray>
        <DataArray type="Float32" Name="OrientationY" NumberOfComponents="3" format="ascii">
                      -0.00000                       1.00000                      -0.00000
                      -0.00000                       1.00000                      -0.00000
                      -0.00000                       1.00000                      -0.00000
                      -0.00000                       1.00000                      -0.00000
                      -0.00000                       1.00000                      -0.00000
                      -0.00000                       1.00000                      -0.00000
                      -0.00000                       1.00000                      -0.00000
                      -0.00000                       1.00000                      -0.00000
                      -0.00000                       1.00000                      -0.00000
                      -0.00000                       1.00000                      -0.00000
                      -0.00000                       1.00000                      -0.00000
                      -0.00000                       1.00000                      -0.00000
                      -0.00000                       1.00000                      -0.00000
                      -0.00000                       1.00000                      -0.00000
                      -0.00000                       1.00000                      -0.00000
                      -0.00000                       1.00000                      -0.00000
                      -0.00000                       1.00000                      -0.00000
                      -0.00000                       1.00000                      -0.00000
                      -0.00000                       1.00000                      -0.00000
                      -0.00000                       1.00000                      -0.00000
                      -0.00000                       1.00000                      -0.00000
                      -0.00000                       1.00000                      -0.00000
        </DataArray>
        <DataArray type="Float32" Name="OrientationZ" NumberOfComponents="3" format="ascii">
                       0.00000                      -0.00000                       1.00000
                       0.00000                      -0.00000                       1.00000
                       0.00000                      -0.00000                       1.00000
                       0.00000                      -0.00000                       1.00000
                       0.00000                      -0.00000                       1.00000
                       0.00000                      -0.00000                       1.00000
                       0.00000                      -0.00000                       1.00000
                       0.00000                      -0.00000                       1.00000
                       0.00000                      -0.00000                       1.00000
                       0.00000                      -0.00000                       1.00000
                       0.00000                      -0.00000                       1.00000
                       0.00000                      -0.00000                       1.00000
                       0.00000                      -0.00000                       1.00000
                       0.00000                      -0.00000                       1.00000
                       0.00000                      -0.00000                       1.00000
                       0.00000                      -0.00000                       1.00000
                       0.00000                      -0.00000                       1.00000
                       0.00000                      -0.00000                       1.00000
                       0.00000                      -0.00000                       1.00000
                       0.00000                      -0.00000                       1.00000
                       0.00000                      -0.00000                       1.00000
                       0.00000                      -0.00000                       1.00000
        </DataArray>
      </PointData>
      <Lines>
        <DataArray type="Int32" Name="connectivity" format="ascii">
      0      1
      1      2
      2      3
      3      4
      4      5
      5      6
      6      7
      7      8
      8      9
      9     10
     10     11
     11     12
     12     13
     13     14
     14     15
     15     16
     16     17
     17     18
     18     19
     19     20
     21      0
        </DataArray>
        <DataArray type="Int32" Name="offsets" format="ascii">
      2
      4
      6
      8
     10
     12
     14
     16
     18
     20
     22
     24
     26
     28
     30
     32
     34
     36
     38
     40
     42
        </DataArray>
      </Lines>
    </Piece>
  </PolyData>
</VTKFile>
